<svg width="446" height="125" viewBox="0 0 446 125" fill="none" xmlns="http://www.w3.org/2000/svg">
<mask id="path-1-outside-1_1_132" maskUnits="userSpaceOnUse" x="6" y="18" width="440" height="96" fill="black">
<rect fill="white" x="6" y="18" width="440" height="96"/>
<path d="M25.607 66.192C25.607 60.7147 26.792 55.843 29.162 51.577C31.532 47.2583 34.8237 43.914 39.037 41.544C43.303 39.1213 48.122 37.91 53.494 37.91C60.0773 37.91 65.7127 39.648 70.4 43.124C75.0873 46.6 78.221 51.34 79.801 57.344H64.949C63.843 55.0267 62.263 53.2623 60.209 52.051C58.2077 50.8397 55.9167 50.234 53.336 50.234C49.1753 50.234 45.8047 51.6823 43.224 54.579C40.6433 57.4757 39.353 61.3467 39.353 66.192C39.353 71.0373 40.6433 74.9083 43.224 77.805C45.8047 80.7017 49.1753 82.15 53.336 82.15C55.9167 82.15 58.2077 81.5443 60.209 80.333C62.263 79.1217 63.843 77.3573 64.949 75.04H79.801C78.221 81.044 75.0873 85.784 70.4 89.26C65.7127 92.6833 60.0773 94.395 53.494 94.395C48.122 94.395 43.303 93.21 39.037 90.84C34.8237 88.4173 31.532 85.073 29.162 80.807C26.792 76.541 25.607 71.6693 25.607 66.192ZM85.3878 71.88C85.3878 67.3507 86.2304 63.3743 87.9158 59.951C89.6538 56.5277 91.9974 53.8943 94.9468 52.051C97.8961 50.2077 101.188 49.286 104.822 49.286C107.929 49.286 110.641 49.918 112.959 51.182C115.329 52.446 117.146 54.105 118.41 56.159V49.918H131.919V94H118.41V87.759C117.093 89.813 115.25 91.472 112.88 92.736C110.562 94 107.85 94.632 104.743 94.632C101.161 94.632 97.8961 93.7103 94.9468 91.867C91.9974 89.971 89.6538 87.3113 87.9158 83.888C86.2304 80.412 85.3878 76.4093 85.3878 71.88ZM118.41 71.959C118.41 68.5883 117.462 65.9287 115.566 63.98C113.722 62.0313 111.458 61.057 108.772 61.057C106.086 61.057 103.795 62.0313 101.899 63.98C100.055 65.876 99.1338 68.5093 99.1338 71.88C99.1338 75.2507 100.055 77.9367 101.899 79.938C103.795 81.8867 106.086 82.861 108.772 82.861C111.458 82.861 113.722 81.8867 115.566 79.938C117.462 77.9893 118.41 75.3297 118.41 71.959ZM155.201 57.265C156.781 54.8423 158.756 52.9463 161.126 51.577C163.496 50.155 166.129 49.444 169.026 49.444V63.743H165.313C161.942 63.743 159.414 64.4803 157.729 65.955C156.044 67.377 155.201 69.905 155.201 73.539V94H141.692V49.918H155.201V57.265ZM219.012 49.918V94H205.503V87.996C204.134 89.9447 202.264 91.5247 199.894 92.736C197.577 93.8947 194.996 94.474 192.152 94.474C188.781 94.474 185.806 93.7367 183.225 92.262C180.644 90.7347 178.643 88.549 177.221 85.705C175.799 82.861 175.088 79.5167 175.088 75.672V49.918H188.518V73.855C188.518 76.8043 189.282 79.0953 190.809 80.728C192.336 82.3607 194.39 83.177 196.971 83.177C199.604 83.177 201.685 82.3607 203.212 80.728C204.739 79.0953 205.503 76.8043 205.503 73.855V49.918H219.012Z"/>
<path d="M235.035 94.632C232.665 94.632 230.717 93.9473 229.189 92.578C227.715 91.156 226.977 89.418 226.977 87.364C226.977 85.2573 227.715 83.493 229.189 82.071C230.717 80.649 232.665 79.938 235.035 79.938C237.353 79.938 239.249 80.649 240.723 82.071C242.251 83.493 243.014 85.2573 243.014 87.364C243.014 89.418 242.251 91.156 240.723 92.578C239.249 93.9473 237.353 94.632 235.035 94.632ZM307.259 49.444C312.737 49.444 317.082 51.103 320.294 54.421C323.56 57.739 325.192 62.3473 325.192 68.246V94H311.762V70.063C311.762 67.219 310.999 65.0333 309.471 63.506C307.997 61.926 305.943 61.136 303.309 61.136C300.676 61.136 298.596 61.926 297.068 63.506C295.594 65.0333 294.856 67.219 294.856 70.063V94H281.426V70.063C281.426 67.219 280.663 65.0333 279.135 63.506C277.661 61.926 275.607 61.136 272.973 61.136C270.34 61.136 268.26 61.926 266.732 63.506C265.258 65.0333 264.52 67.219 264.52 70.063V94H251.011V49.918H264.52V55.448C265.89 53.6047 267.68 52.1563 269.892 51.103C272.104 49.997 274.606 49.444 277.397 49.444C280.715 49.444 283.665 50.155 286.245 51.577C288.879 52.999 290.933 55.0267 292.407 57.66C293.935 55.2373 296.015 53.2623 298.648 51.735C301.282 50.2077 304.152 49.444 307.259 49.444ZM354.706 94.632C350.388 94.632 346.49 93.7103 343.014 91.867C339.591 90.0237 336.879 87.3903 334.877 83.967C332.929 80.5437 331.954 76.541 331.954 71.959C331.954 67.4297 332.955 63.4533 334.956 60.03C336.958 56.554 339.696 53.8943 343.172 52.051C346.648 50.2077 350.546 49.286 354.864 49.286C359.183 49.286 363.08 50.2077 366.556 52.051C370.032 53.8943 372.771 56.554 374.772 60.03C376.774 63.4533 377.774 67.4297 377.774 71.959C377.774 76.4883 376.747 80.491 374.693 83.967C372.692 87.3903 369.927 90.0237 366.398 91.867C362.922 93.7103 359.025 94.632 354.706 94.632ZM354.706 82.94C357.287 82.94 359.473 81.992 361.263 80.096C363.107 78.2 364.028 75.4877 364.028 71.959C364.028 68.4303 363.133 65.718 361.342 63.822C359.604 61.926 357.445 60.978 354.864 60.978C352.231 60.978 350.045 61.926 348.307 63.822C346.569 65.6653 345.7 68.3777 345.7 71.959C345.7 75.4877 346.543 78.2 348.228 80.096C349.966 81.992 352.126 82.94 354.706 82.94ZM426.495 71.248C426.495 72.512 426.416 73.8287 426.258 75.198H395.685C395.896 77.9367 396.765 80.0433 398.292 81.518C399.872 82.94 401.794 83.651 404.059 83.651C407.43 83.651 409.773 82.229 411.09 79.385H425.468C424.731 82.2817 423.388 84.8887 421.439 87.206C419.543 89.5233 417.147 91.3403 414.25 92.657C411.353 93.9737 408.114 94.632 404.533 94.632C400.214 94.632 396.37 93.7103 392.999 91.867C389.628 90.0237 386.995 87.3903 385.099 83.967C383.203 80.5437 382.255 76.541 382.255 71.959C382.255 67.377 383.177 63.3743 385.02 59.951C386.916 56.5277 389.549 53.8943 392.92 52.051C396.291 50.2077 400.162 49.286 404.533 49.286C408.799 49.286 412.591 50.1813 415.909 51.972C419.227 53.7627 421.808 56.317 423.651 59.635C425.547 62.953 426.495 66.824 426.495 71.248ZM412.67 67.693C412.67 65.3757 411.88 63.5323 410.3 62.163C408.72 60.7937 406.745 60.109 404.375 60.109C402.11 60.109 400.188 60.7673 398.608 62.084C397.081 63.4007 396.133 65.2703 395.764 67.693H412.67Z"/>
</mask>
<path d="M25.607 66.192C25.607 60.7147 26.792 55.843 29.162 51.577C31.532 47.2583 34.8237 43.914 39.037 41.544C43.303 39.1213 48.122 37.91 53.494 37.91C60.0773 37.91 65.7127 39.648 70.4 43.124C75.0873 46.6 78.221 51.34 79.801 57.344H64.949C63.843 55.0267 62.263 53.2623 60.209 52.051C58.2077 50.8397 55.9167 50.234 53.336 50.234C49.1753 50.234 45.8047 51.6823 43.224 54.579C40.6433 57.4757 39.353 61.3467 39.353 66.192C39.353 71.0373 40.6433 74.9083 43.224 77.805C45.8047 80.7017 49.1753 82.15 53.336 82.15C55.9167 82.15 58.2077 81.5443 60.209 80.333C62.263 79.1217 63.843 77.3573 64.949 75.04H79.801C78.221 81.044 75.0873 85.784 70.4 89.26C65.7127 92.6833 60.0773 94.395 53.494 94.395C48.122 94.395 43.303 93.21 39.037 90.84C34.8237 88.4173 31.532 85.073 29.162 80.807C26.792 76.541 25.607 71.6693 25.607 66.192ZM85.3878 71.88C85.3878 67.3507 86.2304 63.3743 87.9158 59.951C89.6538 56.5277 91.9974 53.8943 94.9468 52.051C97.8961 50.2077 101.188 49.286 104.822 49.286C107.929 49.286 110.641 49.918 112.959 51.182C115.329 52.446 117.146 54.105 118.41 56.159V49.918H131.919V94H118.41V87.759C117.093 89.813 115.25 91.472 112.88 92.736C110.562 94 107.85 94.632 104.743 94.632C101.161 94.632 97.8961 93.7103 94.9468 91.867C91.9974 89.971 89.6538 87.3113 87.9158 83.888C86.2304 80.412 85.3878 76.4093 85.3878 71.88ZM118.41 71.959C118.41 68.5883 117.462 65.9287 115.566 63.98C113.722 62.0313 111.458 61.057 108.772 61.057C106.086 61.057 103.795 62.0313 101.899 63.98C100.055 65.876 99.1338 68.5093 99.1338 71.88C99.1338 75.2507 100.055 77.9367 101.899 79.938C103.795 81.8867 106.086 82.861 108.772 82.861C111.458 82.861 113.722 81.8867 115.566 79.938C117.462 77.9893 118.41 75.3297 118.41 71.959ZM155.201 57.265C156.781 54.8423 158.756 52.9463 161.126 51.577C163.496 50.155 166.129 49.444 169.026 49.444V63.743H165.313C161.942 63.743 159.414 64.4803 157.729 65.955C156.044 67.377 155.201 69.905 155.201 73.539V94H141.692V49.918H155.201V57.265ZM219.012 49.918V94H205.503V87.996C204.134 89.9447 202.264 91.5247 199.894 92.736C197.577 93.8947 194.996 94.474 192.152 94.474C188.781 94.474 185.806 93.7367 183.225 92.262C180.644 90.7347 178.643 88.549 177.221 85.705C175.799 82.861 175.088 79.5167 175.088 75.672V49.918H188.518V73.855C188.518 76.8043 189.282 79.0953 190.809 80.728C192.336 82.3607 194.39 83.177 196.971 83.177C199.604 83.177 201.685 82.3607 203.212 80.728C204.739 79.0953 205.503 76.8043 205.503 73.855V49.918H219.012Z" fill="#00B0F0"/>
<path d="M235.035 94.632C232.665 94.632 230.717 93.9473 229.189 92.578C227.715 91.156 226.977 89.418 226.977 87.364C226.977 85.2573 227.715 83.493 229.189 82.071C230.717 80.649 232.665 79.938 235.035 79.938C237.353 79.938 239.249 80.649 240.723 82.071C242.251 83.493 243.014 85.2573 243.014 87.364C243.014 89.418 242.251 91.156 240.723 92.578C239.249 93.9473 237.353 94.632 235.035 94.632ZM307.259 49.444C312.737 49.444 317.082 51.103 320.294 54.421C323.56 57.739 325.192 62.3473 325.192 68.246V94H311.762V70.063C311.762 67.219 310.999 65.0333 309.471 63.506C307.997 61.926 305.943 61.136 303.309 61.136C300.676 61.136 298.596 61.926 297.068 63.506C295.594 65.0333 294.856 67.219 294.856 70.063V94H281.426V70.063C281.426 67.219 280.663 65.0333 279.135 63.506C277.661 61.926 275.607 61.136 272.973 61.136C270.34 61.136 268.26 61.926 266.732 63.506C265.258 65.0333 264.52 67.219 264.52 70.063V94H251.011V49.918H264.52V55.448C265.89 53.6047 267.68 52.1563 269.892 51.103C272.104 49.997 274.606 49.444 277.397 49.444C280.715 49.444 283.665 50.155 286.245 51.577C288.879 52.999 290.933 55.0267 292.407 57.66C293.935 55.2373 296.015 53.2623 298.648 51.735C301.282 50.2077 304.152 49.444 307.259 49.444ZM354.706 94.632C350.388 94.632 346.49 93.7103 343.014 91.867C339.591 90.0237 336.879 87.3903 334.877 83.967C332.929 80.5437 331.954 76.541 331.954 71.959C331.954 67.4297 332.955 63.4533 334.956 60.03C336.958 56.554 339.696 53.8943 343.172 52.051C346.648 50.2077 350.546 49.286 354.864 49.286C359.183 49.286 363.08 50.2077 366.556 52.051C370.032 53.8943 372.771 56.554 374.772 60.03C376.774 63.4533 377.774 67.4297 377.774 71.959C377.774 76.4883 376.747 80.491 374.693 83.967C372.692 87.3903 369.927 90.0237 366.398 91.867C362.922 93.7103 359.025 94.632 354.706 94.632ZM354.706 82.94C357.287 82.94 359.473 81.992 361.263 80.096C363.107 78.2 364.028 75.4877 364.028 71.959C364.028 68.4303 363.133 65.718 361.342 63.822C359.604 61.926 357.445 60.978 354.864 60.978C352.231 60.978 350.045 61.926 348.307 63.822C346.569 65.6653 345.7 68.3777 345.7 71.959C345.7 75.4877 346.543 78.2 348.228 80.096C349.966 81.992 352.126 82.94 354.706 82.94ZM426.495 71.248C426.495 72.512 426.416 73.8287 426.258 75.198H395.685C395.896 77.9367 396.765 80.0433 398.292 81.518C399.872 82.94 401.794 83.651 404.059 83.651C407.43 83.651 409.773 82.229 411.09 79.385H425.468C424.731 82.2817 423.388 84.8887 421.439 87.206C419.543 89.5233 417.147 91.3403 414.25 92.657C411.353 93.9737 408.114 94.632 404.533 94.632C400.214 94.632 396.37 93.7103 392.999 91.867C389.628 90.0237 386.995 87.3903 385.099 83.967C383.203 80.5437 382.255 76.541 382.255 71.959C382.255 67.377 383.177 63.3743 385.02 59.951C386.916 56.5277 389.549 53.8943 392.92 52.051C396.291 50.2077 400.162 49.286 404.533 49.286C408.799 49.286 412.591 50.1813 415.909 51.972C419.227 53.7627 421.808 56.317 423.651 59.635C425.547 62.953 426.495 66.824 426.495 71.248ZM412.67 67.693C412.67 65.3757 411.88 63.5323 410.3 62.163C408.72 60.7937 406.745 60.109 404.375 60.109C402.11 60.109 400.188 60.7673 398.608 62.084C397.081 63.4007 396.133 65.2703 395.764 67.693H412.67Z" fill="#F9A8D4"/>
<path d="M29.162 51.577L45.771 60.8042C45.787 60.7755 45.8029 60.7467 45.8187 60.7179L29.162 51.577ZM39.037 41.544L48.352 58.1039C48.3746 58.0912 48.3971 58.0785 48.4197 58.0657L39.037 41.544ZM70.4 43.124L81.7175 27.8625L81.7175 27.8625L70.4 43.124ZM79.801 57.344V76.344C85.693 76.344 91.2515 73.6105 94.8488 68.9442C98.446 64.2778 99.6749 58.2066 98.1754 52.5086L79.801 57.344ZM64.949 57.344L47.8019 65.5279C50.9558 72.1362 57.6266 76.344 64.949 76.344V57.344ZM60.209 52.051L50.3707 68.3055C50.4327 68.343 50.4949 68.3802 50.5573 68.417L60.209 52.051ZM43.224 54.579L57.4105 67.2179V67.2179L43.224 54.579ZM43.224 77.805L29.0375 90.4439L43.224 77.805ZM60.209 80.333L50.5573 63.967C50.4949 64.0038 50.4327 64.041 50.3707 64.0785L60.209 80.333ZM64.949 75.04V56.04C57.6266 56.04 50.9558 60.2478 47.8019 66.8561L64.949 75.04ZM79.801 75.04L98.1754 79.8754C99.6749 74.1774 98.446 68.1062 94.8488 63.4398C91.2515 58.7735 85.693 56.04 79.801 56.04V75.04ZM70.4 89.26L81.606 104.604C81.6433 104.576 81.6805 104.549 81.7175 104.522L70.4 89.26ZM39.037 90.84L29.5661 107.311C29.647 107.358 29.7282 107.404 29.8098 107.449L39.037 90.84ZM29.162 80.807L45.771 71.5798L29.162 80.807ZM25.607 66.192H44.607C44.607 63.5414 45.1535 61.9157 45.771 60.8042L29.162 51.577L12.553 42.3498C8.4305 49.7703 6.607 57.888 6.607 66.192H25.607ZM29.162 51.577L45.8187 60.7179C46.5163 59.4466 47.2921 58.7001 48.352 58.1039L39.037 41.544L29.722 24.9841C22.3553 29.1279 16.5477 35.0701 12.5053 42.4361L29.162 51.577ZM39.037 41.544L48.4197 58.0657C49.5587 57.4188 51.0904 56.91 53.494 56.91V37.91V18.91C45.1536 18.91 37.0473 20.8238 29.6543 25.0223L39.037 41.544ZM53.494 37.91V56.91C56.548 56.91 58.0824 57.6438 59.0825 58.3855L70.4 43.124L81.7175 27.8625C73.343 21.6522 63.6066 18.91 53.494 18.91V37.91ZM70.4 43.124L59.0825 58.3855C60.0702 59.118 60.8702 60.0651 61.4266 62.1794L79.801 57.344L98.1754 52.5086C95.5718 42.6149 90.1045 34.082 81.7175 27.8625L70.4 43.124ZM79.801 57.344V38.344H64.949V57.344V76.344H79.801V57.344ZM64.949 57.344L82.0961 49.1601C79.4927 43.7053 75.4245 38.9663 69.8607 35.685L60.209 52.051L50.5573 68.417C49.9145 68.0379 49.3017 67.5401 48.7804 66.958C48.2672 66.3849 47.9626 65.8646 47.8019 65.5279L64.949 57.344ZM60.209 52.051L70.0473 35.7965C64.7782 32.6073 59.0165 31.234 53.336 31.234V50.234V69.234C53.1317 69.234 52.7067 69.2087 52.1336 69.0572C51.549 68.9026 50.9416 68.651 50.3707 68.3055L60.209 52.051ZM53.336 50.234V31.234C44.1986 31.234 35.5078 34.6775 29.0375 41.9401L43.224 54.579L57.4105 67.2179C56.9602 67.7234 56.2031 68.3409 55.1884 68.7769C54.2065 69.1988 53.4899 69.234 53.336 69.234V50.234ZM43.224 54.579L29.0375 41.9401C22.6389 49.1222 20.353 57.8909 20.353 66.192H39.353H58.353C58.353 65.4393 58.4544 65.3371 58.3457 65.6631C58.2903 65.8295 58.1901 66.0758 58.0231 66.3677C57.8549 66.6618 57.6476 66.9518 57.4105 67.2179L43.224 54.579ZM39.353 66.192H20.353C20.353 74.4931 22.6389 83.2618 29.0375 90.4439L43.224 77.805L57.4105 65.1661C57.6476 65.4322 57.8549 65.7221 58.0231 66.0163C58.1901 66.3082 58.2903 66.5545 58.3457 66.7209C58.4544 67.0469 58.353 66.9447 58.353 66.192H39.353ZM43.224 77.805L29.0375 90.4439C35.5078 97.7065 44.1986 101.15 53.336 101.15V82.15V63.15C53.4899 63.15 54.2065 63.1852 55.1884 63.6071C56.2031 64.0431 56.9602 64.6606 57.4105 65.1661L43.224 77.805ZM53.336 82.15V101.15C59.0165 101.15 64.7782 99.7767 70.0473 96.5875L60.209 80.333L50.3707 64.0785C50.9416 63.733 51.549 63.4814 52.1336 63.3268C52.7067 63.1753 53.1317 63.15 53.336 63.15V82.15ZM60.209 80.333L69.8607 96.699C75.4245 93.4177 79.4927 88.6787 82.0961 83.2239L64.949 75.04L47.8019 66.8561C47.9626 66.5194 48.2672 65.9991 48.7804 65.426C49.3017 64.8439 49.9145 64.3461 50.5573 63.967L60.209 80.333ZM64.949 75.04V94.04H79.801V75.04V56.04H64.949V75.04ZM79.801 75.04L61.4266 70.2046C60.8702 72.3189 60.0702 73.266 59.0825 73.9985L70.4 89.26L81.7175 104.522C90.1045 98.302 95.5718 89.7691 98.1754 79.8754L79.801 75.04ZM70.4 89.26L59.194 73.9164C58.1875 74.6515 56.6127 75.395 53.494 75.395V94.395V113.395C63.542 113.395 73.2378 110.715 81.606 104.604L70.4 89.26ZM53.494 94.395V75.395C51.0178 75.395 49.43 74.8787 48.2642 74.231L39.037 90.84L29.8098 107.449C37.176 111.541 45.2262 113.395 53.494 113.395V94.395ZM39.037 90.84L48.508 74.3688C47.3009 73.6748 46.4714 72.8404 45.771 71.5798L29.162 80.807L12.553 90.0342C16.5926 97.3056 22.3464 103.16 29.5661 107.311L39.037 90.84ZM29.162 80.807L45.771 71.5798C45.1535 70.4683 44.607 68.8426 44.607 66.192H25.607H6.607C6.607 74.496 8.4305 82.6137 12.553 90.0342L29.162 80.807ZM87.9158 59.951L70.9741 51.3498C70.9388 51.4193 70.904 51.4891 70.8695 51.559L87.9158 59.951ZM94.9468 52.051L105.017 68.163L105.017 68.163L94.9468 52.051ZM112.959 51.182L103.861 67.862C103.913 67.8905 103.965 67.9187 104.018 67.9467L112.959 51.182ZM118.41 56.159L102.228 66.1169C106.683 73.3564 115.405 76.7559 123.584 74.4408C131.764 72.1257 137.41 64.6595 137.41 56.159H118.41ZM118.41 49.918V30.918C107.916 30.918 99.4098 39.4246 99.4098 49.918H118.41ZM131.919 49.918H150.919C150.919 39.4246 142.412 30.918 131.919 30.918V49.918ZM131.919 94V113C142.412 113 150.919 104.493 150.919 94H131.919ZM118.41 94H99.4098C99.4098 104.493 107.916 113 118.41 113V94ZM118.41 87.759H137.41C137.41 79.3232 131.848 71.8975 123.752 69.5255C115.657 67.1536 106.967 70.4034 102.414 77.5053L118.41 87.759ZM112.88 92.736L103.939 75.9713C103.886 75.9993 103.834 76.0275 103.782 76.056L112.88 92.736ZM94.9468 91.867L84.6724 107.849C84.7402 107.893 84.8084 107.936 84.8768 107.979L94.9468 91.867ZM87.9158 83.888L70.8193 92.1772C70.87 92.2817 70.9216 92.3856 70.9741 92.4892L87.9158 83.888ZM115.566 63.98L101.763 77.0368C101.824 77.1015 101.886 77.1659 101.948 77.2297L115.566 63.98ZM101.899 63.98L88.281 50.7303L88.2759 50.7355L101.899 63.98ZM101.899 79.938L87.9234 92.81C88.0409 92.9376 88.1601 93.0635 88.281 93.1877L101.899 79.938ZM115.566 79.938L101.948 66.6883C101.886 66.7521 101.824 66.8165 101.763 66.8812L115.566 79.938ZM85.3878 71.88H104.388C104.388 69.7208 104.781 68.7109 104.962 68.343L87.9158 59.951L70.8695 51.559C67.68 58.0378 66.3878 64.9805 66.3878 71.88H85.3878ZM87.9158 59.951L104.857 68.5522C104.957 68.357 105.037 68.2275 105.089 68.1498C105.141 68.073 105.169 68.0408 105.17 68.0402C105.17 68.0402 105.152 68.0595 105.118 68.0887C105.083 68.118 105.047 68.1438 105.017 68.163L94.9468 52.051L84.8768 35.939C78.6978 39.8009 74.1094 45.1742 70.9741 51.3498L87.9158 59.951ZM94.9468 52.051L105.017 68.163C105.008 68.1684 104.975 68.1883 104.919 68.2128C104.864 68.2374 104.805 68.2583 104.751 68.2736C104.696 68.2887 104.666 68.2929 104.667 68.2928C104.669 68.2925 104.718 68.286 104.822 68.286V49.286V30.286C97.7944 30.286 90.9849 32.1215 84.8768 35.939L94.9468 52.051ZM104.822 49.286V68.286C105.089 68.286 105.084 68.3131 104.875 68.2643C104.652 68.2125 104.288 68.0954 103.861 67.862L112.959 51.182L122.057 34.502C116.492 31.4665 110.544 30.286 104.822 30.286V49.286ZM112.959 51.182L104.018 67.9467C103.93 67.9002 103.652 67.7378 103.288 67.4055C102.915 67.0652 102.543 66.6285 102.228 66.1169L118.41 56.159L134.591 46.2011C131.365 40.959 126.898 37.0829 121.9 34.4173L112.959 51.182ZM118.41 56.159H137.41V49.918H118.41H99.4098V56.159H118.41ZM118.41 49.918V68.918H131.919V49.918V30.918H118.41V49.918ZM131.919 49.918H112.919V94H131.919H150.919V49.918H131.919ZM131.919 94V75H118.41V94V113H131.919V94ZM118.41 94H137.41V87.759H118.41H99.4098V94H118.41ZM118.41 87.759L102.414 77.5053C102.688 77.078 103.009 76.7097 103.329 76.4212C103.643 76.139 103.877 76.0044 103.939 75.9713L112.88 92.736L121.821 109.501C126.764 106.864 131.16 103.075 134.405 98.0126L118.41 87.759ZM112.88 92.736L103.782 76.056C104.209 75.8226 104.573 75.7055 104.796 75.6537C105.005 75.6049 105.01 75.632 104.743 75.632V94.632V113.632C110.465 113.632 116.413 112.451 121.978 109.416L112.88 92.736ZM104.743 94.632V75.632C104.664 75.632 104.636 75.6271 104.651 75.629C104.666 75.6311 104.708 75.6381 104.769 75.6552C104.83 75.6724 104.89 75.6942 104.941 75.7173C104.993 75.7403 105.019 75.7564 105.017 75.755L94.9468 91.867L84.8768 107.979C90.939 111.768 97.7119 113.632 104.743 113.632V94.632ZM94.9468 91.867L105.221 75.8846C105.221 75.8846 105.222 75.885 105.223 75.8861C105.225 75.8871 105.227 75.8884 105.229 75.8902C105.234 75.8938 105.239 75.8976 105.243 75.9013C105.253 75.91 105.25 75.9086 105.232 75.8888C105.203 75.8556 105.061 75.688 104.857 75.2868L87.9158 83.888L70.9741 92.4892C74.0902 98.627 78.6193 103.958 84.6724 107.849L94.9468 91.867ZM87.9158 83.888L105.012 75.5988C104.778 75.116 104.388 74.0306 104.388 71.88H85.3878H66.3878C66.3878 78.7881 67.6827 85.708 70.8193 92.1772L87.9158 83.888ZM118.41 71.959H137.41C137.41 64.8907 135.315 57.0318 129.184 50.7303L115.566 63.98L101.948 77.2297C100.919 76.172 100.208 74.955 99.8017 73.8154C99.4199 72.7442 99.4098 72.0376 99.4098 71.959H118.41ZM115.566 63.98L129.369 50.9232C123.931 45.1749 116.672 42.057 108.772 42.057V61.057V80.057C107.766 80.057 106.421 79.8625 104.976 79.241C103.531 78.6192 102.46 77.7741 101.763 77.0368L115.566 63.98ZM108.772 61.057V42.057C100.886 42.057 93.7046 45.156 88.281 50.7303L101.899 63.98L115.517 77.2297C114.869 77.8958 113.857 78.6846 112.475 79.2722C111.088 79.8619 109.78 80.057 108.772 80.057V61.057ZM101.899 63.98L88.2759 50.7355C82.1076 57.08 80.1338 64.9824 80.1338 71.88H99.1338H118.134C118.134 71.901 118.133 72.5828 117.758 73.6537C117.358 74.7986 116.632 76.0824 115.522 77.2245L101.899 63.98ZM99.1338 71.88H80.1338C80.1338 78.8282 82.1234 86.5129 87.9234 92.81L101.899 79.938L115.874 67.066C116.812 68.0843 117.442 69.2222 117.796 70.2558C118.13 71.2291 118.134 71.8489 118.134 71.88H99.1338ZM101.899 79.938L88.281 93.1877C93.7046 98.762 100.886 101.861 108.772 101.861V82.861V63.861C109.78 63.861 111.088 64.0561 112.475 64.6458C113.857 65.2334 114.869 66.0222 115.517 66.6883L101.899 79.938ZM108.772 82.861V101.861C116.672 101.861 123.931 98.743 129.369 92.9948L115.566 79.938L101.763 66.8812C102.46 66.1439 103.531 65.2988 104.976 64.677C106.421 64.0555 107.766 63.861 108.772 63.861V82.861ZM115.566 79.938L129.184 93.1877C135.315 86.8862 137.41 79.0273 137.41 71.959H118.41H99.4098C99.4098 71.8804 99.4199 71.1738 99.8017 70.1026C100.208 68.963 100.919 67.746 101.948 66.6883L115.566 79.938ZM155.201 57.265H136.201C136.201 65.6732 141.727 73.0814 149.787 75.4773C157.847 77.8732 166.522 74.6869 171.116 67.6441L155.201 57.265ZM161.126 51.577L170.631 68.0284C170.722 67.9762 170.812 67.9231 170.901 67.8694L161.126 51.577ZM169.026 49.444H188.026C188.026 38.9506 179.519 30.444 169.026 30.444V49.444ZM169.026 63.743V82.743C179.519 82.743 188.026 74.2364 188.026 63.743H169.026ZM157.729 65.955L169.981 80.4765C170.069 80.4031 170.155 80.3289 170.241 80.254L157.729 65.955ZM155.201 94V113C165.694 113 174.201 104.493 174.201 94H155.201ZM141.692 94H122.692C122.692 104.493 131.199 113 141.692 113V94ZM141.692 49.918V30.918C131.199 30.918 122.692 39.4246 122.692 49.918H141.692ZM155.201 49.918H174.201C174.201 39.4246 165.694 30.918 155.201 30.918V49.918ZM155.201 57.265L171.116 67.6441C171.161 67.575 171.137 67.625 171.025 67.7324C170.91 67.8428 170.77 67.9482 170.631 68.0284L161.126 51.577L151.621 35.1256C146.521 38.0723 142.401 42.1096 139.286 46.8859L155.201 57.265ZM161.126 51.577L170.901 67.8694C170.601 68.0493 170.232 68.2123 169.831 68.3204C169.436 68.427 169.147 68.444 169.026 68.444V49.444V30.444C162.858 30.444 156.818 32.004 151.351 35.2846L161.126 51.577ZM169.026 49.444H150.026V63.743H169.026H188.026V49.444H169.026ZM169.026 63.743V44.743H165.313V63.743V82.743H169.026V63.743ZM165.313 63.743V44.743C159.59 44.743 151.75 45.94 145.217 51.656L157.729 65.955L170.241 80.254C168.667 81.631 167.138 82.2652 166.209 82.536C165.34 82.7894 164.952 82.743 165.313 82.743V63.743ZM157.729 65.955L145.476 51.4335C137.395 58.2526 136.201 67.8477 136.201 73.539H155.201H174.201C174.201 73.0742 174.269 73.6914 173.858 74.9258C173.406 76.2827 172.318 78.5055 169.981 80.4765L157.729 65.955ZM155.201 73.539H136.201V94H155.201H174.201V73.539H155.201ZM155.201 94V75H141.692V94V113H155.201V94ZM141.692 94H160.692V49.918H141.692H122.692V94H141.692ZM141.692 49.918V68.918H155.201V49.918V30.918H141.692V49.918ZM155.201 49.918H136.201V57.265H155.201H174.201V49.918H155.201ZM219.012 49.918H238.012C238.012 39.4246 229.505 30.918 219.012 30.918V49.918ZM219.012 94V113C229.505 113 238.012 104.493 238.012 94H219.012ZM205.503 94H186.503C186.503 104.493 195.01 113 205.503 113V94ZM205.503 87.996H224.503C224.503 79.7094 219.132 72.3786 211.232 69.8802C203.331 67.3817 194.722 70.292 189.957 77.072L205.503 87.996ZM199.894 92.736L208.391 109.73C208.441 109.705 208.491 109.68 208.541 109.654L199.894 92.736ZM183.225 92.262L173.548 108.613C173.631 108.662 173.714 108.711 173.798 108.759L183.225 92.262ZM177.221 85.705L160.227 94.2021L177.221 85.705ZM175.088 49.918V30.918C164.595 30.918 156.088 39.4246 156.088 49.918H175.088ZM188.518 49.918H207.518C207.518 39.4246 199.011 30.918 188.518 30.918V49.918ZM190.809 80.728L176.934 93.708L190.809 80.728ZM203.212 80.728L189.337 67.748L203.212 80.728ZM205.503 49.918V30.918C195.01 30.918 186.503 39.4246 186.503 49.918H205.503ZM219.012 49.918H200.012V94H219.012H238.012V49.918H219.012ZM219.012 94V75H205.503V94V113H219.012V94ZM205.503 94H224.503V87.996H205.503H186.503V94H205.503ZM205.503 87.996L189.957 77.072C190.234 76.678 190.536 76.3616 190.81 76.1304C191.077 75.9052 191.25 75.8162 191.247 75.8177L199.894 92.736L208.541 109.654C213.336 107.204 217.701 103.684 221.049 98.92L205.503 87.996ZM199.894 92.736L191.397 75.7419C191.644 75.6183 191.878 75.5414 192.059 75.5009C192.233 75.4619 192.278 75.474 192.152 75.474V94.474V113.474C197.653 113.474 203.185 112.333 208.391 109.73L199.894 92.736ZM192.152 94.474V75.474C191.856 75.474 191.815 75.4423 191.962 75.4787C192.033 75.4964 192.136 75.5271 192.262 75.5772C192.388 75.6274 192.52 75.6904 192.652 75.7654L183.225 92.262L173.798 108.759C179.617 112.084 185.926 113.474 192.152 113.474V94.474ZM183.225 92.262L192.902 75.911C193.203 76.0892 193.523 76.342 193.801 76.6461C194.074 76.9439 194.195 77.1685 194.215 77.2079L177.221 85.705L160.227 94.2021C163.179 100.106 167.631 105.111 173.548 108.613L183.225 92.262ZM177.221 85.705L194.215 77.2079C194.36 77.4977 194.088 77.1761 194.088 75.672H175.088H156.088C156.088 81.8572 157.238 88.2243 160.227 94.2021L177.221 85.705ZM175.088 75.672H194.088V49.918H175.088H156.088V75.672H175.088ZM175.088 49.918V68.918H188.518V49.918V30.918H175.088V49.918ZM188.518 49.918H169.518V73.855H188.518H207.518V49.918H188.518ZM188.518 73.855H169.518C169.518 80.0449 171.173 87.5503 176.934 93.708L190.809 80.728L204.684 67.748C207.39 70.6404 207.518 73.5638 207.518 73.855H188.518ZM190.809 80.728L176.934 93.708C182.619 99.785 190.02 102.177 196.971 102.177V83.177V64.177C197.687 64.177 198.965 64.2932 200.512 64.9081C202.119 65.5466 203.557 66.5434 204.684 67.748L190.809 80.728ZM196.971 83.177V102.177C203.845 102.177 211.326 99.866 217.087 93.708L203.212 80.728L189.337 67.748C190.505 66.4996 191.972 65.5033 193.566 64.8778C195.093 64.2784 196.328 64.177 196.971 64.177V83.177ZM203.212 80.728L217.087 93.708C222.848 87.5503 224.503 80.0449 224.503 73.855H205.503H186.503C186.503 73.5638 186.631 70.6404 189.337 67.748L203.212 80.728ZM205.503 73.855H224.503V49.918H205.503H186.503V73.855H205.503ZM205.503 49.918V68.918H219.012V49.918V30.918H205.503V49.918ZM229.189 92.578L216.001 106.255C216.166 106.415 216.335 106.571 216.506 106.725L229.189 92.578ZM229.189 82.071L216.242 68.165C216.161 68.2406 216.081 68.3169 216.001 68.394L229.189 82.071ZM240.723 82.071L227.535 95.748C227.615 95.8251 227.695 95.9014 227.776 95.977L240.723 82.071ZM240.723 92.578L253.652 106.501C253.658 106.495 253.664 106.49 253.67 106.484L240.723 92.578ZM235.035 94.632V75.632C235.684 75.632 236.771 75.7277 238.095 76.1928C239.46 76.6723 240.764 77.4371 241.873 78.4312L229.189 92.578L216.506 106.725C222.056 111.7 228.759 113.632 235.035 113.632V94.632ZM229.189 92.578L242.378 78.901C243.323 79.8123 244.309 81.1087 245.021 82.7876C245.733 84.4653 245.977 86.0674 245.977 87.364H226.977H207.977C207.977 94.5615 210.801 101.241 216.001 106.255L229.189 92.578ZM226.977 87.364H245.977C245.977 88.5692 245.757 90.1227 245.061 91.787C244.361 93.4627 243.371 94.7904 242.378 95.748L229.189 82.071L216.001 68.394C210.696 73.5096 207.977 80.263 207.977 87.364H226.977ZM229.189 82.071L242.136 95.977C241.052 96.9866 239.736 97.7995 238.309 98.3203C236.922 98.8264 235.759 98.938 235.035 98.938V79.938V60.938C228.563 60.938 221.768 63.0203 216.242 68.165L229.189 82.071ZM235.035 79.938V98.938C234.241 98.938 232.994 98.8126 231.524 98.2615C230.012 97.6946 228.644 96.8173 227.535 95.748L240.723 82.071L253.912 68.394C248.423 63.1007 241.573 60.938 235.035 60.938V79.938ZM240.723 82.071L227.776 95.977C226.786 95.0553 225.751 93.7321 225.005 92.008C224.26 90.288 224.014 88.6563 224.014 87.364H243.014H262.014C262.014 80.0398 259.1 73.2199 253.67 68.165L240.723 82.071ZM243.014 87.364H224.014C224.014 85.9779 224.286 84.297 225.047 82.5648C225.805 80.8395 226.836 79.5479 227.776 78.672L240.723 92.578L253.67 106.484C258.988 101.533 262.014 94.7875 262.014 87.364H243.014ZM240.723 92.578L227.795 78.6549C228.932 77.5989 230.293 76.7714 231.742 76.248C233.148 75.7403 234.318 75.632 235.035 75.632V94.632V113.632C241.37 113.632 248.131 111.628 253.652 106.501L240.723 92.578ZM320.294 54.421L306.644 67.6376C306.68 67.6746 306.716 67.7114 306.752 67.7481L320.294 54.421ZM325.192 94V113C335.686 113 344.192 104.493 344.192 94H325.192ZM311.762 94H292.762C292.762 104.493 301.269 113 311.762 113V94ZM309.471 63.506L295.581 76.47C295.73 76.6296 295.882 76.7867 296.036 76.941L309.471 63.506ZM297.068 63.506L283.408 50.3006L283.4 50.3087L297.068 63.506ZM294.856 94V113C305.35 113 313.856 104.493 313.856 94H294.856ZM281.426 94H262.426C262.426 104.493 270.933 113 281.426 113V94ZM279.135 63.506L265.245 76.47C265.394 76.6296 265.546 76.7867 265.7 76.941L279.135 63.506ZM266.732 63.506L253.072 50.3006L253.064 50.3087L266.732 63.506ZM264.52 94V113C275.014 113 283.52 104.493 283.52 94H264.52ZM251.011 94H232.011C232.011 104.493 240.518 113 251.011 113V94ZM251.011 49.918V30.918C240.518 30.918 232.011 39.4246 232.011 49.918H251.011ZM264.52 49.918H283.52C283.52 39.4246 275.014 30.918 264.52 30.918V49.918ZM264.52 55.448H245.52C245.52 63.6422 250.774 70.9133 258.553 73.4867C266.333 76.0601 274.886 73.356 279.772 66.7782L264.52 55.448ZM269.892 51.103L278.061 68.2573C278.171 68.205 278.28 68.1516 278.389 68.0971L269.892 51.103ZM286.245 51.577L277.076 68.2179C277.123 68.2439 277.17 68.2696 277.217 68.2952L286.245 51.577ZM292.407 57.66L275.83 66.9435C279.104 72.7898 285.215 76.4793 291.913 76.6536C298.612 76.8278 304.906 73.4609 308.48 67.7927L292.407 57.66ZM307.259 49.444V68.444C308.085 68.444 308.188 68.5678 307.849 68.4384C307.682 68.3748 307.462 68.2694 307.223 68.1118C306.983 67.954 306.788 67.7856 306.644 67.6376L320.294 54.421L333.944 41.2044C326.492 33.5081 316.849 30.444 307.259 30.444V49.444ZM320.294 54.421L306.752 67.7481C306.572 67.5651 306.407 67.355 306.274 67.1392C306.142 66.9261 306.079 66.7689 306.059 66.7107C306.021 66.6058 306.192 67.0254 306.192 68.246H325.192H344.192C344.192 58.7578 341.47 48.8509 333.836 41.0939L320.294 54.421ZM325.192 68.246H306.192V94H325.192H344.192V68.246H325.192ZM325.192 94V75H311.762V94V113H325.192V94ZM311.762 94H330.762V70.063H311.762H292.762V94H311.762ZM311.762 70.063H330.762C330.762 63.8359 329.018 56.1827 322.906 50.071L309.471 63.506L296.036 76.941C294.636 75.5411 293.744 73.9645 293.253 72.5578C292.791 71.236 292.762 70.3053 292.762 70.063H311.762ZM309.471 63.506L323.361 50.542C317.527 44.2912 309.97 42.136 303.309 42.136V61.136V80.136C302.741 80.136 301.535 80.051 300.004 79.4621C298.394 78.8429 296.845 77.8244 295.581 76.47L309.471 63.506ZM303.309 61.136V42.136C296.625 42.136 289.213 44.2948 283.408 50.3006L297.068 63.506L310.729 76.7114C309.525 77.9565 308.057 78.9068 306.519 79.4909C305.049 80.0491 303.884 80.136 303.309 80.136V61.136ZM297.068 63.506L283.4 50.3087C277.475 56.4453 275.856 64.0105 275.856 70.063H294.856H313.856C313.856 70.4275 313.713 73.6214 310.737 76.7033L297.068 63.506ZM294.856 70.063H275.856V94H294.856H313.856V70.063H294.856ZM294.856 94V75H281.426V94V113H294.856V94ZM281.426 94H300.426V70.063H281.426H262.426V94H281.426ZM281.426 70.063H300.426C300.426 63.8359 298.682 56.1827 292.57 50.071L279.135 63.506L265.7 76.941C264.3 75.5411 263.408 73.9645 262.917 72.5578C262.455 71.236 262.426 70.3053 262.426 70.063H281.426ZM279.135 63.506L293.025 50.542C287.191 44.2912 279.634 42.136 272.973 42.136V61.136V80.136C272.405 80.136 271.199 80.051 269.668 79.4621C268.058 78.8429 266.509 77.8244 265.245 76.47L279.135 63.506ZM272.973 61.136V42.136C266.289 42.136 258.877 44.2948 253.072 50.3006L266.732 63.506L280.393 76.7114C279.189 77.9565 277.721 78.9068 276.183 79.4909C274.713 80.0491 273.548 80.136 272.973 80.136V61.136ZM266.732 63.506L253.064 50.3087C247.139 56.4453 245.52 64.0105 245.52 70.063H264.52H283.52C283.52 70.4275 283.377 73.6214 280.401 76.7033L266.732 63.506ZM264.52 70.063H245.52V94H264.52H283.52V70.063H264.52ZM264.52 94V75H251.011V94V113H264.52V94ZM251.011 94H270.011V49.918H251.011H232.011V94H251.011ZM251.011 49.918V68.918H264.52V49.918V30.918H251.011V49.918ZM264.52 49.918H245.52V55.448H264.52H283.52V49.918H264.52ZM264.52 55.448L279.772 66.7782C279.502 67.1421 279.181 67.475 278.839 67.752C278.501 68.0253 278.219 68.1823 278.061 68.2573L269.892 51.103L261.724 33.9487C256.903 36.2441 252.611 39.6179 249.268 44.1178L264.52 55.448ZM269.892 51.103L278.389 68.0971C278.05 68.2667 277.747 68.3627 277.529 68.4109C277.319 68.4573 277.259 68.444 277.397 68.444V49.444V30.444C272.039 30.444 266.568 31.5227 261.395 34.1089L269.892 51.103ZM277.397 49.444V68.444C277.695 68.444 277.757 68.4752 277.645 68.4481C277.591 68.4351 277.508 68.4112 277.403 68.3708C277.298 68.3303 277.187 68.2791 277.076 68.2179L286.245 51.577L295.415 34.9361C289.687 31.7797 283.511 30.444 277.397 30.444V49.444ZM286.245 51.577L277.217 68.2952C277.009 68.1825 276.714 67.9829 276.413 67.6857C276.113 67.3893 275.924 67.1127 275.83 66.9435L292.407 57.66L308.985 48.3765C305.765 42.6274 301.106 38.0083 295.273 34.8588L286.245 51.577ZM292.407 57.66L308.48 67.7927C308.401 67.9186 308.297 68.0437 308.195 68.1411C308.096 68.2348 308.069 68.2357 308.181 68.1706L298.648 51.735L289.116 35.2994C283.997 38.2683 279.603 42.3426 276.335 47.5273L292.407 57.66ZM298.648 51.735L308.181 68.1706C308.077 68.2308 307.894 68.3161 307.661 68.378C307.431 68.4394 307.279 68.444 307.259 68.444V49.444V30.444C300.877 30.444 294.707 32.0562 289.116 35.2994L298.648 51.735ZM343.014 91.867L334.006 108.596C334.042 108.615 334.077 108.634 334.113 108.653L343.014 91.867ZM334.877 83.967L318.365 93.3663C318.401 93.4298 318.438 93.4931 318.475 93.5562L334.877 83.967ZM334.956 60.03L351.359 69.6192C351.38 69.583 351.401 69.5467 351.422 69.5103L334.956 60.03ZM343.172 52.051L352.074 68.8368V68.8368L343.172 52.051ZM366.556 52.051L357.655 68.8368L366.556 52.051ZM374.772 60.03L358.306 69.5103C358.327 69.5467 358.348 69.583 358.37 69.6192L374.772 60.03ZM374.693 83.967L358.336 74.3011C358.321 74.3266 358.306 74.3522 358.291 74.3778L374.693 83.967ZM366.398 91.867L357.601 75.0264C357.566 75.0445 357.531 75.0628 357.497 75.0812L366.398 91.867ZM361.263 80.096L347.64 66.8515C347.576 66.9173 347.513 66.9835 347.45 67.0502L361.263 80.096ZM361.342 63.822L347.336 76.6608C347.4 76.7303 347.464 76.7993 347.529 76.8678L361.342 63.822ZM348.307 63.822L362.131 76.8562C362.192 76.7915 362.253 76.7263 362.313 76.6608L348.307 63.822ZM348.228 80.096L334.027 92.7189C334.092 92.7914 334.157 92.8633 334.222 92.9348L348.228 80.096ZM354.706 94.632V75.632C353.182 75.632 352.389 75.3323 351.916 75.0812L343.014 91.867L334.113 108.653C340.591 112.088 347.593 113.632 354.706 113.632V94.632ZM343.014 91.867L352.022 75.138C351.737 74.9843 351.556 74.8502 351.28 74.3778L334.877 83.967L318.475 93.5562C322.201 99.9305 327.445 105.063 334.006 108.596L343.014 91.867ZM334.877 83.967L351.389 74.5677C351.32 74.4462 350.954 73.7881 350.954 71.959H331.954H312.954C312.954 79.2939 314.537 86.6411 318.365 93.3663L334.877 83.967ZM331.954 71.959H350.954C350.954 70.3124 351.289 69.7393 351.359 69.6192L334.956 60.03L318.554 50.4408C314.621 57.1674 312.954 64.547 312.954 71.959H331.954ZM334.956 60.03L351.422 69.5103C351.676 69.069 351.82 68.9711 352.074 68.8368L343.172 52.051L334.271 35.2652C327.572 38.8176 322.239 44.039 318.49 50.5497L334.956 60.03ZM343.172 52.051L352.074 68.8368C352.547 68.5857 353.34 68.286 354.864 68.286V49.286V30.286C347.751 30.286 340.749 31.8296 334.271 35.2652L343.172 52.051ZM354.864 49.286V68.286C356.389 68.286 357.181 68.5857 357.655 68.8368L366.556 52.051L375.458 35.2652C368.979 31.8296 361.977 30.286 354.864 30.286V49.286ZM366.556 52.051L357.655 68.8368C357.908 68.9711 358.052 69.069 358.306 69.5103L374.772 60.03L391.238 50.5497C387.489 44.039 382.156 38.8176 375.458 35.2652L366.556 52.051ZM374.772 60.03L358.37 69.6192C358.44 69.7393 358.774 70.3124 358.774 71.959H377.774H396.774C396.774 64.547 395.107 57.1674 391.175 50.4408L374.772 60.03ZM377.774 71.959H358.774C358.774 73.5119 358.456 74.0972 358.336 74.3011L374.693 83.967L391.051 93.6329C395.038 86.8848 396.774 79.4647 396.774 71.959H377.774ZM374.693 83.967L358.291 74.3778C358.1 74.7041 357.976 74.8302 357.601 75.0264L366.398 91.867L375.196 108.708C381.877 105.217 387.284 100.077 391.096 93.5562L374.693 83.967ZM366.398 91.867L357.497 75.0812C357.023 75.3323 356.231 75.632 354.706 75.632V94.632V113.632C361.819 113.632 368.821 112.088 375.3 108.653L366.398 91.867ZM354.706 82.94V101.94C362.577 101.94 369.74 98.7927 375.076 93.1418L361.263 80.096L347.45 67.0502C348.152 66.3065 349.239 65.4407 350.72 64.798C352.207 64.1534 353.614 63.94 354.706 63.94V82.94ZM361.263 80.096L374.886 93.3405C381.205 86.8412 383.028 78.7331 383.028 71.959H364.028H345.028C345.028 72.1077 345.005 71.5348 345.347 70.5267C345.717 69.4372 346.435 68.0915 347.64 66.8515L361.263 80.096ZM364.028 71.959H383.028C383.028 65.3241 381.308 57.2909 375.155 50.7761L361.342 63.822L347.529 76.8678C346.336 75.6045 345.655 74.2676 345.314 73.234C344.999 72.2778 345.028 71.761 345.028 71.959H364.028ZM361.342 63.822L375.348 50.9832C369.998 45.1463 362.75 41.978 354.864 41.978V60.978V79.978C353.775 79.978 352.328 79.7653 350.781 79.0862C349.233 78.4065 348.087 77.4799 347.336 76.6608L361.342 63.822ZM354.864 60.978V41.978C347.049 41.978 339.734 45.0562 334.301 50.9832L348.307 63.822L362.313 76.6608C361.525 77.5204 360.355 78.4502 358.81 79.12C357.277 79.7852 355.873 79.978 354.864 79.978V60.978ZM348.307 63.822L334.483 50.7878C328.26 57.388 326.7 65.5407 326.7 71.959H345.7H364.7C364.7 71.2146 364.879 73.9426 362.131 76.8562L348.307 63.822ZM345.7 71.959H326.7C326.7 78.3218 328.224 86.1906 334.027 92.7189L348.228 80.096L362.429 67.4731C364.861 70.2094 364.7 72.6535 364.7 71.959H345.7ZM348.228 80.096L334.222 92.9348C339.573 98.7717 346.82 101.94 354.706 101.94V82.94V63.94C355.795 63.94 357.242 64.1527 358.789 64.8318C360.337 65.5115 361.483 66.4381 362.234 67.2572L348.228 80.096ZM426.258 75.198V94.198C435.909 94.198 444.027 86.9631 445.133 77.3758L426.258 75.198ZM395.685 75.198V56.198C390.393 56.198 385.34 58.4054 381.744 62.2885C378.148 66.1716 376.335 71.3785 376.741 76.6552L395.685 75.198ZM398.292 81.518L385.095 95.1866C385.254 95.3408 385.417 95.4921 385.582 95.6406L398.292 81.518ZM411.09 79.385V60.385C403.687 60.385 396.958 64.6848 393.848 71.4027L411.09 79.385ZM425.468 79.385L443.881 84.0719C445.328 78.3881 444.068 72.3547 440.469 67.7242C436.869 63.0936 431.333 60.385 425.468 60.385V79.385ZM421.439 87.206L406.897 74.9776C406.842 75.0429 406.788 75.1085 406.734 75.1745L421.439 87.206ZM414.25 92.657L422.112 109.954L414.25 92.657ZM392.999 91.867L383.883 108.537L392.999 91.867ZM385.099 83.967L401.72 74.7615L385.099 83.967ZM385.02 59.951L368.399 50.7455C368.363 50.8112 368.327 50.877 368.291 50.9431L385.02 59.951ZM392.92 52.051L402.036 68.7211V68.721L392.92 52.051ZM415.909 51.972L406.885 68.6924V68.6924L415.909 51.972ZM423.651 59.635L407.042 68.8622C407.079 68.9289 407.116 68.9954 407.154 69.0616L423.651 59.635ZM412.67 67.693V86.693C423.163 86.693 431.67 78.1864 431.67 67.693H412.67ZM410.3 62.163L422.744 47.8049V47.8049L410.3 62.163ZM398.608 62.084L386.444 47.4878C386.363 47.5556 386.282 47.6241 386.202 47.6932L398.608 62.084ZM395.764 67.693L376.98 64.8346C376.147 70.3098 377.744 75.8759 381.354 80.0763C384.963 84.2766 390.226 86.693 395.764 86.693V67.693ZM426.495 71.248H407.495C407.495 71.7224 407.465 72.3097 407.383 73.0202L426.258 75.198L445.133 77.3758C445.367 75.3477 445.495 73.3016 445.495 71.248H426.495ZM426.258 75.198V56.198H395.685V75.198V94.198H426.258V75.198ZM395.685 75.198L376.741 76.6552C377.201 82.6332 379.335 89.6256 385.095 95.1866L398.292 81.518L411.489 67.8494C414.194 70.4611 414.59 73.2401 414.629 73.7408L395.685 75.198ZM398.292 81.518L385.582 95.6406C390.892 100.42 397.435 102.651 404.059 102.651V83.651V64.651C404.941 64.651 406.151 64.7951 407.51 65.2976C408.888 65.8072 410.072 66.5585 411.002 67.3954L398.292 81.518ZM404.059 83.651V102.651C408.424 102.651 413.443 101.715 418.201 98.8284C423.047 95.8881 426.321 91.71 428.332 87.3673L411.09 79.385L393.848 71.4027C394.542 69.904 395.987 67.8589 398.489 66.3406C400.902 64.8763 403.065 64.651 404.059 64.651V83.651ZM411.09 79.385V98.385H425.468V79.385V60.385H411.09V79.385ZM425.468 79.385L407.055 74.6981C407.043 74.7448 407.034 74.7724 407.029 74.7853C407.024 74.798 407.02 74.8056 407.017 74.8116C407.015 74.8152 406.989 74.8682 406.897 74.9776L421.439 87.206L435.981 99.4344C439.747 94.9562 442.428 89.7788 443.881 84.0719L425.468 79.385ZM421.439 87.206L406.734 75.1745C406.733 75.176 406.736 75.1718 406.742 75.1657C406.749 75.1595 406.749 75.1597 406.74 75.1669C406.727 75.1767 406.628 75.2508 406.388 75.36L414.25 92.657L422.112 109.954C427.493 107.508 432.286 103.953 436.144 99.2375L421.439 87.206ZM414.25 92.657L406.388 75.36C406.253 75.4212 405.743 75.632 404.533 75.632V94.632V113.632C410.485 113.632 416.453 112.526 422.112 109.954L414.25 92.657ZM404.533 94.632V75.632C402.999 75.632 402.358 75.3297 402.115 75.1969L392.999 91.867L383.883 108.537C390.381 112.091 397.43 113.632 404.533 113.632V94.632ZM392.999 91.867L402.115 75.1969C402.032 75.1514 401.986 75.1192 401.966 75.1044C401.947 75.0898 401.937 75.0809 401.931 75.0745C401.931 75.0743 401.852 75.0005 401.72 74.7615L385.099 83.967L368.478 93.1725C372.084 99.6826 377.292 104.933 383.883 108.537L392.999 91.867ZM385.099 83.967L401.72 74.7615C401.632 74.6027 401.255 73.8736 401.255 71.959H382.255H363.255C363.255 79.2085 364.774 86.4847 368.478 93.1725L385.099 83.967ZM382.255 71.959H401.255C401.255 69.9597 401.642 69.1582 401.749 68.9589L385.02 59.951L368.291 50.9431C364.712 57.5905 363.255 64.7943 363.255 71.959H382.255ZM385.02 59.951L401.641 69.1565C401.773 68.9175 401.852 68.8437 401.852 68.8435C401.858 68.8371 401.868 68.8282 401.887 68.8136C401.907 68.7988 401.953 68.7666 402.036 68.7211L392.92 52.051L383.804 35.3809C377.213 38.9851 372.005 44.2354 368.399 50.7455L385.02 59.951ZM392.92 52.051L402.036 68.721C402.246 68.6065 402.903 68.286 404.533 68.286V49.286V30.286C397.42 30.286 390.335 31.8088 383.804 35.3809L392.92 52.051ZM404.533 49.286V68.286C406.068 68.286 406.687 68.5853 406.885 68.6924L415.909 51.972L424.933 35.2516C418.495 31.7773 411.53 30.286 404.533 30.286V49.286ZM415.909 51.972L406.885 68.6924C406.957 68.7311 406.988 68.754 406.991 68.756C406.993 68.7576 406.982 68.7497 406.967 68.7345C406.952 68.7194 406.947 68.7123 406.955 68.7223C406.963 68.7329 406.994 68.7753 407.042 68.8622L423.651 59.635L440.26 50.4078C436.668 43.9418 431.465 38.777 424.933 35.2516L415.909 51.972ZM423.651 59.635L407.154 69.0616C407.167 69.0834 407.495 69.6034 407.495 71.248H426.495H445.495C445.495 64.0446 443.927 56.8226 440.148 50.2084L423.651 59.635ZM412.67 67.693H431.67C431.67 60.5354 428.969 53.2 422.744 47.8049L410.3 62.163L397.856 76.5211C396.57 75.406 395.399 73.8898 394.614 72.057C393.85 70.2743 393.67 68.7107 393.67 67.693H412.67ZM410.3 62.163L422.744 47.8049C417.247 43.0413 410.665 41.109 404.375 41.109V60.109V79.109C403.721 79.109 402.673 79.012 401.41 78.5744C400.114 78.125 398.892 77.4186 397.856 76.5211L410.3 62.163ZM404.375 60.109V41.109C398.146 41.109 391.791 43.0324 386.444 47.4878L398.608 62.084L410.771 76.6802C409.804 77.4865 408.648 78.1471 407.391 78.5779C406.157 79.0003 405.099 79.109 404.375 79.109V60.109ZM398.608 62.084L386.202 47.6932C380.542 52.5724 377.878 58.9353 376.98 64.8346L395.764 67.693L414.548 70.5514C414.478 71.0074 414.276 71.9245 413.698 73.0661C413.096 74.2526 412.201 75.451 411.014 76.4748L398.608 62.084ZM395.764 67.693V86.693H412.67V67.693V48.693H395.764V67.693Z" fill="#B9F3FF" mask="url(#path-1-outside-1_1_132)"/>
<rect x="338" y="34" width="39" height="60" fill="white"/>
<rect x="81" y="34" width="39" height="60" fill="white"/>
<mask id="path-5-outside-2_1_132" maskUnits="userSpaceOnUse" x="0" y="10" width="442" height="98" fill="black">
<rect fill="white" y="10" width="442" height="98"/>
<path d="M20.607 59.192C20.607 53.7147 21.792 48.843 24.162 44.577C26.532 40.2583 29.8237 36.914 34.037 34.544C38.303 32.1213 43.122 30.91 48.494 30.91C55.0773 30.91 60.7127 32.648 65.4 36.124C70.0873 39.6 73.221 44.34 74.801 50.344H59.949C58.843 48.0267 57.263 46.2623 55.209 45.051C53.2077 43.8397 50.9167 43.234 48.336 43.234C44.1753 43.234 40.8047 44.6823 38.224 47.579C35.6433 50.4757 34.353 54.3467 34.353 59.192C34.353 64.0373 35.6433 67.9083 38.224 70.805C40.8047 73.7017 44.1753 75.15 48.336 75.15C50.9167 75.15 53.2077 74.5443 55.209 73.333C57.263 72.1217 58.843 70.3573 59.949 68.04H74.801C73.221 74.044 70.0873 78.784 65.4 82.26C60.7127 85.6833 55.0773 87.395 48.494 87.395C43.122 87.395 38.303 86.21 34.037 83.84C29.8237 81.4173 26.532 78.073 24.162 73.807C21.792 69.541 20.607 64.6693 20.607 59.192ZM80.3878 64.88C80.3878 60.3507 81.2304 56.3743 82.9158 52.951C84.6538 49.5277 86.9974 46.8943 89.9468 45.051C92.8961 43.2077 96.1878 42.286 99.8218 42.286C102.929 42.286 105.641 42.918 107.959 44.182C110.329 45.446 112.146 47.105 113.41 49.159V42.918H126.919V87H113.41V80.759C112.093 82.813 110.25 84.472 107.88 85.736C105.562 87 102.85 87.632 99.7428 87.632C96.1614 87.632 92.8961 86.7103 89.9468 84.867C86.9974 82.971 84.6538 80.3113 82.9158 76.888C81.2304 73.412 80.3878 69.4093 80.3878 64.88ZM113.41 64.959C113.41 61.5883 112.462 58.9287 110.566 56.98C108.722 55.0313 106.458 54.057 103.772 54.057C101.086 54.057 98.7948 55.0313 96.8988 56.98C95.0554 58.876 94.1338 61.5093 94.1338 64.88C94.1338 68.2507 95.0554 70.9367 96.8988 72.938C98.7948 74.8867 101.086 75.861 103.772 75.861C106.458 75.861 108.722 74.8867 110.566 72.938C112.462 70.9893 113.41 68.3297 113.41 64.959ZM150.201 50.265C151.781 47.8423 153.756 45.9463 156.126 44.577C158.496 43.155 161.129 42.444 164.026 42.444V56.743H160.313C156.942 56.743 154.414 57.4803 152.729 58.955C151.044 60.377 150.201 62.905 150.201 66.539V87H136.692V42.918H150.201V50.265ZM214.012 42.918V87H200.503V80.996C199.134 82.9447 197.264 84.5247 194.894 85.736C192.577 86.8947 189.996 87.474 187.152 87.474C183.781 87.474 180.806 86.7367 178.225 85.262C175.644 83.7347 173.643 81.549 172.221 78.705C170.799 75.861 170.088 72.5167 170.088 68.672V42.918H183.518V66.855C183.518 69.8043 184.282 72.0953 185.809 73.728C187.336 75.3607 189.39 76.177 191.971 76.177C194.604 76.177 196.685 75.3607 198.212 73.728C199.739 72.0953 200.503 69.8043 200.503 66.855V42.918H214.012Z"/>
<path d="M230.035 87.632C227.665 87.632 225.717 86.9473 224.189 85.578C222.715 84.156 221.977 82.418 221.977 80.364C221.977 78.2573 222.715 76.493 224.189 75.071C225.717 73.649 227.665 72.938 230.035 72.938C232.353 72.938 234.249 73.649 235.723 75.071C237.251 76.493 238.014 78.2573 238.014 80.364C238.014 82.418 237.251 84.156 235.723 85.578C234.249 86.9473 232.353 87.632 230.035 87.632ZM302.259 42.444C307.737 42.444 312.082 44.103 315.294 47.421C318.56 50.739 320.192 55.3473 320.192 61.246V87H306.762V63.063C306.762 60.219 305.999 58.0333 304.471 56.506C302.997 54.926 300.943 54.136 298.309 54.136C295.676 54.136 293.596 54.926 292.068 56.506C290.594 58.0333 289.856 60.219 289.856 63.063V87H276.426V63.063C276.426 60.219 275.663 58.0333 274.135 56.506C272.661 54.926 270.607 54.136 267.973 54.136C265.34 54.136 263.26 54.926 261.732 56.506C260.258 58.0333 259.52 60.219 259.52 63.063V87H246.011V42.918H259.52V48.448C260.89 46.6047 262.68 45.1563 264.892 44.103C267.104 42.997 269.606 42.444 272.397 42.444C275.715 42.444 278.665 43.155 281.245 44.577C283.879 45.999 285.933 48.0267 287.407 50.66C288.935 48.2373 291.015 46.2623 293.648 44.735C296.282 43.2077 299.152 42.444 302.259 42.444ZM349.706 87.632C345.388 87.632 341.49 86.7103 338.014 84.867C334.591 83.0237 331.879 80.3903 329.877 76.967C327.929 73.5437 326.954 69.541 326.954 64.959C326.954 60.4297 327.955 56.4533 329.956 53.03C331.958 49.554 334.696 46.8943 338.172 45.051C341.648 43.2077 345.546 42.286 349.864 42.286C354.183 42.286 358.08 43.2077 361.556 45.051C365.032 46.8943 367.771 49.554 369.772 53.03C371.774 56.4533 372.774 60.4297 372.774 64.959C372.774 69.4883 371.747 73.491 369.693 76.967C367.692 80.3903 364.927 83.0237 361.398 84.867C357.922 86.7103 354.025 87.632 349.706 87.632ZM349.706 75.94C352.287 75.94 354.473 74.992 356.263 73.096C358.107 71.2 359.028 68.4877 359.028 64.959C359.028 61.4303 358.133 58.718 356.342 56.822C354.604 54.926 352.445 53.978 349.864 53.978C347.231 53.978 345.045 54.926 343.307 56.822C341.569 58.6653 340.7 61.3777 340.7 64.959C340.7 68.4877 341.543 71.2 343.228 73.096C344.966 74.992 347.126 75.94 349.706 75.94ZM421.495 64.248C421.495 65.512 421.416 66.8287 421.258 68.198H390.685C390.896 70.9367 391.765 73.0433 393.292 74.518C394.872 75.94 396.794 76.651 399.059 76.651C402.43 76.651 404.773 75.229 406.09 72.385H420.468C419.731 75.2817 418.388 77.8887 416.439 80.206C414.543 82.5233 412.147 84.3403 409.25 85.657C406.353 86.9737 403.114 87.632 399.533 87.632C395.214 87.632 391.37 86.7103 387.999 84.867C384.628 83.0237 381.995 80.3903 380.099 76.967C378.203 73.5437 377.255 69.541 377.255 64.959C377.255 60.377 378.177 56.3743 380.02 52.951C381.916 49.5277 384.549 46.8943 387.92 45.051C391.291 43.2077 395.162 42.286 399.533 42.286C403.799 42.286 407.591 43.1813 410.909 44.972C414.227 46.7627 416.808 49.317 418.651 52.635C420.547 55.953 421.495 59.824 421.495 64.248ZM407.67 60.693C407.67 58.3757 406.88 56.5323 405.3 55.163C403.72 53.7937 401.745 53.109 399.375 53.109C397.11 53.109 395.188 53.7673 393.608 55.084C392.081 56.4007 391.133 58.2703 390.764 60.693H407.67Z"/>
</mask>
<path d="M20.607 59.192C20.607 53.7147 21.792 48.843 24.162 44.577C26.532 40.2583 29.8237 36.914 34.037 34.544C38.303 32.1213 43.122 30.91 48.494 30.91C55.0773 30.91 60.7127 32.648 65.4 36.124C70.0873 39.6 73.221 44.34 74.801 50.344H59.949C58.843 48.0267 57.263 46.2623 55.209 45.051C53.2077 43.8397 50.9167 43.234 48.336 43.234C44.1753 43.234 40.8047 44.6823 38.224 47.579C35.6433 50.4757 34.353 54.3467 34.353 59.192C34.353 64.0373 35.6433 67.9083 38.224 70.805C40.8047 73.7017 44.1753 75.15 48.336 75.15C50.9167 75.15 53.2077 74.5443 55.209 73.333C57.263 72.1217 58.843 70.3573 59.949 68.04H74.801C73.221 74.044 70.0873 78.784 65.4 82.26C60.7127 85.6833 55.0773 87.395 48.494 87.395C43.122 87.395 38.303 86.21 34.037 83.84C29.8237 81.4173 26.532 78.073 24.162 73.807C21.792 69.541 20.607 64.6693 20.607 59.192ZM80.3878 64.88C80.3878 60.3507 81.2304 56.3743 82.9158 52.951C84.6538 49.5277 86.9974 46.8943 89.9468 45.051C92.8961 43.2077 96.1878 42.286 99.8218 42.286C102.929 42.286 105.641 42.918 107.959 44.182C110.329 45.446 112.146 47.105 113.41 49.159V42.918H126.919V87H113.41V80.759C112.093 82.813 110.25 84.472 107.88 85.736C105.562 87 102.85 87.632 99.7428 87.632C96.1614 87.632 92.8961 86.7103 89.9468 84.867C86.9974 82.971 84.6538 80.3113 82.9158 76.888C81.2304 73.412 80.3878 69.4093 80.3878 64.88ZM113.41 64.959C113.41 61.5883 112.462 58.9287 110.566 56.98C108.722 55.0313 106.458 54.057 103.772 54.057C101.086 54.057 98.7948 55.0313 96.8988 56.98C95.0554 58.876 94.1338 61.5093 94.1338 64.88C94.1338 68.2507 95.0554 70.9367 96.8988 72.938C98.7948 74.8867 101.086 75.861 103.772 75.861C106.458 75.861 108.722 74.8867 110.566 72.938C112.462 70.9893 113.41 68.3297 113.41 64.959ZM150.201 50.265C151.781 47.8423 153.756 45.9463 156.126 44.577C158.496 43.155 161.129 42.444 164.026 42.444V56.743H160.313C156.942 56.743 154.414 57.4803 152.729 58.955C151.044 60.377 150.201 62.905 150.201 66.539V87H136.692V42.918H150.201V50.265ZM214.012 42.918V87H200.503V80.996C199.134 82.9447 197.264 84.5247 194.894 85.736C192.577 86.8947 189.996 87.474 187.152 87.474C183.781 87.474 180.806 86.7367 178.225 85.262C175.644 83.7347 173.643 81.549 172.221 78.705C170.799 75.861 170.088 72.5167 170.088 68.672V42.918H183.518V66.855C183.518 69.8043 184.282 72.0953 185.809 73.728C187.336 75.3607 189.39 76.177 191.971 76.177C194.604 76.177 196.685 75.3607 198.212 73.728C199.739 72.0953 200.503 69.8043 200.503 66.855V42.918H214.012Z" fill="#00B0F0"/>
<path d="M230.035 87.632C227.665 87.632 225.717 86.9473 224.189 85.578C222.715 84.156 221.977 82.418 221.977 80.364C221.977 78.2573 222.715 76.493 224.189 75.071C225.717 73.649 227.665 72.938 230.035 72.938C232.353 72.938 234.249 73.649 235.723 75.071C237.251 76.493 238.014 78.2573 238.014 80.364C238.014 82.418 237.251 84.156 235.723 85.578C234.249 86.9473 232.353 87.632 230.035 87.632ZM302.259 42.444C307.737 42.444 312.082 44.103 315.294 47.421C318.56 50.739 320.192 55.3473 320.192 61.246V87H306.762V63.063C306.762 60.219 305.999 58.0333 304.471 56.506C302.997 54.926 300.943 54.136 298.309 54.136C295.676 54.136 293.596 54.926 292.068 56.506C290.594 58.0333 289.856 60.219 289.856 63.063V87H276.426V63.063C276.426 60.219 275.663 58.0333 274.135 56.506C272.661 54.926 270.607 54.136 267.973 54.136C265.34 54.136 263.26 54.926 261.732 56.506C260.258 58.0333 259.52 60.219 259.52 63.063V87H246.011V42.918H259.52V48.448C260.89 46.6047 262.68 45.1563 264.892 44.103C267.104 42.997 269.606 42.444 272.397 42.444C275.715 42.444 278.665 43.155 281.245 44.577C283.879 45.999 285.933 48.0267 287.407 50.66C288.935 48.2373 291.015 46.2623 293.648 44.735C296.282 43.2077 299.152 42.444 302.259 42.444ZM349.706 87.632C345.388 87.632 341.49 86.7103 338.014 84.867C334.591 83.0237 331.879 80.3903 329.877 76.967C327.929 73.5437 326.954 69.541 326.954 64.959C326.954 60.4297 327.955 56.4533 329.956 53.03C331.958 49.554 334.696 46.8943 338.172 45.051C341.648 43.2077 345.546 42.286 349.864 42.286C354.183 42.286 358.08 43.2077 361.556 45.051C365.032 46.8943 367.771 49.554 369.772 53.03C371.774 56.4533 372.774 60.4297 372.774 64.959C372.774 69.4883 371.747 73.491 369.693 76.967C367.692 80.3903 364.927 83.0237 361.398 84.867C357.922 86.7103 354.025 87.632 349.706 87.632ZM349.706 75.94C352.287 75.94 354.473 74.992 356.263 73.096C358.107 71.2 359.028 68.4877 359.028 64.959C359.028 61.4303 358.133 58.718 356.342 56.822C354.604 54.926 352.445 53.978 349.864 53.978C347.231 53.978 345.045 54.926 343.307 56.822C341.569 58.6653 340.7 61.3777 340.7 64.959C340.7 68.4877 341.543 71.2 343.228 73.096C344.966 74.992 347.126 75.94 349.706 75.94ZM421.495 64.248C421.495 65.512 421.416 66.8287 421.258 68.198H390.685C390.896 70.9367 391.765 73.0433 393.292 74.518C394.872 75.94 396.794 76.651 399.059 76.651C402.43 76.651 404.773 75.229 406.09 72.385H420.468C419.731 75.2817 418.388 77.8887 416.439 80.206C414.543 82.5233 412.147 84.3403 409.25 85.657C406.353 86.9737 403.114 87.632 399.533 87.632C395.214 87.632 391.37 86.7103 387.999 84.867C384.628 83.0237 381.995 80.3903 380.099 76.967C378.203 73.5437 377.255 69.541 377.255 64.959C377.255 60.377 378.177 56.3743 380.02 52.951C381.916 49.5277 384.549 46.8943 387.92 45.051C391.291 43.2077 395.162 42.286 399.533 42.286C403.799 42.286 407.591 43.1813 410.909 44.972C414.227 46.7627 416.808 49.317 418.651 52.635C420.547 55.953 421.495 59.824 421.495 64.248ZM407.67 60.693C407.67 58.3757 406.88 56.5323 405.3 55.163C403.72 53.7937 401.745 53.109 399.375 53.109C397.11 53.109 395.188 53.7673 393.608 55.084C392.081 56.4007 391.133 58.2703 390.764 60.693H407.67Z" fill="#F9A8D4"/>
<path d="M24.162 44.577L41.6451 54.2899C41.662 54.2596 41.6787 54.2293 41.6953 54.199L24.162 44.577ZM34.037 34.544L43.8422 51.9755C43.866 51.9621 43.8898 51.9487 43.9135 51.9352L34.037 34.544ZM65.4 36.124L77.3132 20.0593L77.3132 20.0592L65.4 36.124ZM74.801 50.344V70.344C81.0031 70.344 86.8542 67.4667 90.6408 62.5547C94.4274 57.6427 95.7209 51.252 94.1425 45.2541L74.801 50.344ZM59.949 50.344L41.8994 58.9586C45.2193 65.9147 52.2412 70.344 59.949 70.344V50.344ZM55.209 45.051L44.8529 62.161C44.9182 62.2005 44.9836 62.2396 45.0493 62.2783L55.209 45.051ZM38.224 47.579L53.1572 60.8831L53.1572 60.8831L38.224 47.579ZM38.224 70.805L23.2908 84.1091L38.224 70.805ZM55.209 73.333L45.0493 56.1057C44.9836 56.1444 44.9182 56.1835 44.8529 56.223L55.209 73.333ZM59.949 68.04V48.04C52.2412 48.04 45.2193 52.4693 41.8994 59.4254L59.949 68.04ZM74.801 68.04L94.1425 73.1299C95.7209 67.132 94.4274 60.7413 90.6408 55.8293C86.8542 50.9173 81.0031 48.04 74.801 48.04V68.04ZM65.4 82.26L77.1958 98.4111C77.235 98.3825 77.2742 98.3537 77.3132 98.3247L65.4 82.26ZM34.037 83.84L24.0676 101.178C24.1527 101.227 24.2383 101.275 24.3241 101.323L34.037 83.84ZM24.162 73.807L41.6451 64.0941L24.162 73.807ZM20.607 59.192H40.607C40.607 56.6901 41.1199 55.2353 41.6451 54.2899L24.162 44.577L6.67886 34.8641C2.46411 42.4507 0.607 50.7392 0.607 59.192H20.607ZM24.162 44.577L41.6953 54.199C42.305 53.088 42.9483 52.4783 43.8422 51.9755L34.037 34.544L24.2318 17.1125C16.699 21.3497 10.759 27.4286 6.62866 34.955L24.162 44.577ZM34.037 34.544L43.9135 51.9352C44.8879 51.3819 46.2466 50.91 48.494 50.91V30.91V10.91C39.9974 10.91 31.7181 12.8608 24.1605 17.1528L34.037 34.544ZM48.494 30.91V50.91C51.3623 50.91 52.6808 51.591 53.4868 52.1887L65.4 36.124L77.3132 20.0592C68.7446 13.705 58.7924 10.91 48.494 10.91V30.91ZM65.4 36.124L53.4868 52.1887C54.2798 52.7768 54.957 53.5243 55.4595 55.4339L74.801 50.344L94.1425 45.2541C91.485 35.1557 85.8949 26.4232 77.3132 20.0593L65.4 36.124ZM74.801 50.344V30.344H59.949V50.344V70.344H74.801V50.344ZM59.949 50.344L77.9986 41.7294C75.3163 36.1094 71.1172 31.2138 65.3687 27.8237L55.209 45.051L45.0493 62.2783C44.3186 61.8474 43.6258 61.2843 43.0355 60.6251C42.4536 59.9754 42.0977 59.374 41.8994 58.9586L59.949 50.344ZM55.209 45.051L65.5651 27.941C60.124 24.6477 54.1796 23.234 48.336 23.234V43.234V63.234C48.053 63.234 47.5415 63.1994 46.878 63.024C46.2024 62.8454 45.5065 62.5566 44.8529 62.161L55.209 45.051ZM48.336 43.234V23.234C38.9366 23.234 29.9659 26.7825 23.2908 34.2749L38.224 47.579L53.1572 60.8831C52.6153 61.4914 51.74 62.1986 50.5832 62.6957C49.4609 63.1779 48.6075 63.234 48.336 63.234V43.234ZM38.224 47.579L23.2908 34.2749C16.6913 41.6825 14.353 50.7091 14.353 59.192H34.353H54.353C54.353 58.5272 54.4427 58.5343 54.2944 58.9793C54.126 59.4847 53.7665 60.1992 53.1572 60.8831L38.224 47.579ZM34.353 59.192H14.353C14.353 67.6749 16.6913 76.7015 23.2908 84.1091L38.224 70.805L53.1572 57.5009C53.7666 58.1848 54.126 58.8993 54.2944 59.4047C54.4427 59.8497 54.353 59.8568 54.353 59.192H34.353ZM38.224 70.805L23.2908 84.1091C29.9659 91.6015 38.9366 95.15 48.336 95.15V75.15V55.15C48.6075 55.15 49.4609 55.2061 50.5832 55.6883C51.74 56.1853 52.6153 56.8926 53.1572 57.5009L38.224 70.805ZM48.336 75.15V95.15C54.1796 95.15 60.124 93.7363 65.5651 90.443L55.209 73.333L44.8529 56.223C45.5065 55.8274 46.2024 55.5386 46.878 55.36C47.5415 55.1846 48.053 55.15 48.336 55.15V75.15ZM55.209 73.333L65.3687 90.5603C71.1172 87.1702 75.3163 82.2746 77.9986 76.6546L59.949 68.04L41.8994 59.4254C42.0977 59.01 42.4536 58.4086 43.0355 57.7589C43.6258 57.0997 44.3186 56.5366 45.0493 56.1057L55.209 73.333ZM59.949 68.04V88.04H74.801V68.04V48.04H59.949V68.04ZM74.801 68.04L55.4595 62.9501C54.957 64.8597 54.2798 65.6072 53.4868 66.1953L65.4 82.26L77.3132 98.3247C85.8949 91.9608 91.485 83.2283 94.1425 73.1299L74.801 68.04ZM65.4 82.26L53.6042 66.1089C52.7914 66.7025 51.4303 67.395 48.494 67.395V87.395V107.395C58.7243 107.395 68.6339 104.664 77.1958 98.4111L65.4 82.26ZM48.494 87.395V67.395C46.1702 67.395 44.7525 66.9139 43.7499 66.3569L34.037 83.84L24.3241 101.323C31.8535 105.506 40.0738 107.395 48.494 107.395V87.395ZM34.037 83.84L44.0064 66.5019C42.9576 65.8988 42.2576 65.1966 41.6451 64.0941L24.162 73.807L6.67885 83.5199C10.8064 90.9494 16.6897 96.9358 24.0676 101.178L34.037 83.84ZM24.162 73.807L41.6451 64.0941C41.1199 63.1487 40.607 61.6939 40.607 59.192H20.607H0.607C0.607 67.6448 2.46411 75.9333 6.67885 83.5199L24.162 73.807ZM82.9158 52.951L65.0824 43.8972C65.0453 43.9703 65.0086 44.0437 64.9724 44.1173L82.9158 52.951ZM89.9468 45.051L100.547 62.011H100.547L89.9468 45.051ZM107.959 44.182L98.3817 61.7399C98.4367 61.7699 98.4918 61.7996 98.547 61.829L107.959 44.182ZM113.41 49.159L96.3766 59.6409C101.066 67.2615 110.247 70.8399 118.857 68.403C127.466 65.9661 133.41 58.1069 133.41 49.159H113.41ZM113.41 42.918V22.918C102.364 22.918 93.4098 31.8723 93.4098 42.918H113.41ZM126.919 42.918H146.919C146.919 31.8723 137.964 22.918 126.919 22.918V42.918ZM126.919 87V107C137.964 107 146.919 98.0457 146.919 87H126.919ZM113.41 87H93.4098C93.4098 98.0457 102.364 107 113.41 107V87ZM113.41 80.759H133.41C133.41 71.8792 127.555 64.0627 119.033 61.5659C110.512 59.0691 101.364 62.49 96.5722 69.9657L113.41 80.759ZM107.88 85.736L98.468 68.0889C98.4128 68.1184 98.3577 68.1481 98.3027 68.1781L107.88 85.736ZM89.9468 84.867L79.1316 101.691C79.2031 101.736 79.2748 101.782 79.3468 101.827L89.9468 84.867ZM82.9158 76.888L64.9195 85.6135C64.9728 85.7234 65.0271 85.8329 65.0824 85.9418L82.9158 76.888ZM110.566 56.98L96.0364 70.724C96.1009 70.7922 96.1658 70.8598 96.2313 70.9271L110.566 56.98ZM96.8988 56.98L82.5643 43.0329L82.5589 43.0384L96.8988 56.98ZM96.8988 72.938L82.1879 86.4875C82.3115 86.6218 82.437 86.7543 82.5643 86.8851L96.8988 72.938ZM110.566 72.938L96.2313 58.9909C96.1658 59.0581 96.1009 59.1258 96.0364 59.194L110.566 72.938ZM80.3878 64.88H100.388C100.388 62.8456 100.757 61.9917 100.859 61.7847L82.9158 52.951L64.9724 44.1173C61.7036 50.7569 60.3878 57.8558 60.3878 64.88H80.3878ZM82.9158 52.951L100.749 62.0048C100.831 61.8445 100.89 61.7506 100.918 61.7087C100.946 61.6676 100.947 61.671 100.917 61.705C100.886 61.7397 100.835 61.7921 100.764 61.8522C100.692 61.9125 100.618 61.9665 100.547 62.011L89.9468 45.051L79.3468 28.091C72.9979 32.0591 68.2913 37.5767 65.0824 43.8972L82.9158 52.951ZM89.9468 45.051L100.547 62.011C100.433 62.0822 100.243 62.1741 100.02 62.2365C99.8033 62.2972 99.7128 62.286 99.8218 62.286V42.286V22.286C92.6158 22.286 85.6211 24.1696 79.3468 28.091L89.9468 45.051ZM99.8218 42.286V62.286C100.021 62.286 99.9396 62.3062 99.6479 62.2382C99.3424 62.167 98.8931 62.0188 98.3817 61.7399L107.959 44.182L117.536 26.6241C111.8 23.4954 105.681 22.286 99.8218 22.286V42.286ZM107.959 44.182L98.547 61.829C98.3929 61.7468 98.0446 61.5374 97.6136 61.144C97.1736 60.7421 96.7413 60.2336 96.3766 59.6409L113.41 49.159L130.443 38.677C127.114 33.2671 122.507 29.2743 117.371 26.5349L107.959 44.182ZM113.41 49.159H133.41V42.918H113.41H93.4098V49.159H113.41ZM113.41 42.918V62.918H126.919V42.918V22.918H113.41V42.918ZM126.919 42.918H106.919V87H126.919H146.919V42.918H126.919ZM126.919 87V67H113.41V87V107H126.919V87ZM113.41 87H133.41V80.759H113.41H93.4098V87H113.41ZM113.41 80.759L96.5722 69.9657C96.8952 69.4618 97.2745 69.0252 97.6605 68.6779C98.039 68.3372 98.3404 68.157 98.468 68.0889L107.88 85.736L117.292 103.383C122.37 100.674 126.901 96.7729 130.247 91.5523L113.41 80.759ZM107.88 85.736L98.3027 68.1781C98.8141 67.8991 99.2634 67.751 99.5689 67.6798C99.8606 67.6118 99.942 67.632 99.7428 67.632V87.632V107.632C105.602 107.632 111.721 106.423 117.457 103.294L107.88 85.736ZM99.7428 87.632V67.632C99.687 67.632 99.8099 67.6277 100.041 67.6928C100.275 67.7591 100.457 67.8507 100.547 67.907L89.9468 84.867L79.3468 101.827C85.5728 105.718 92.5304 107.632 99.7428 107.632V87.632ZM89.9468 84.867L100.762 68.0434C100.803 68.0699 100.85 68.1041 100.895 68.1433C100.941 68.1825 100.97 68.2135 100.982 68.2276C100.994 68.2412 100.979 68.2257 100.941 68.1686C100.902 68.1107 100.835 68.0036 100.749 67.8342L82.9158 76.888L65.0824 85.9418C68.2711 92.2225 72.9152 97.6943 79.1316 101.691L89.9468 84.867ZM82.9158 76.888L100.912 68.1625C100.754 67.8372 100.388 66.9054 100.388 64.88H80.3878H60.3878C60.3878 71.9133 61.7066 78.9868 64.9195 85.6135L82.9158 76.888ZM113.41 64.959H133.41C133.41 57.6961 131.254 49.5635 124.9 43.0329L110.566 56.98L96.2313 70.9271C95.0981 69.7624 94.3122 68.4207 93.8597 67.1512C93.4329 65.9536 93.4098 65.1304 93.4098 64.959H113.41ZM110.566 56.98L125.095 43.236C119.468 37.2878 111.946 34.057 103.772 34.057V54.057V74.057C102.642 74.057 101.161 73.8395 99.5806 73.1596C97.9997 72.4794 96.8191 71.5514 96.0364 70.724L110.566 56.98ZM103.772 54.057V34.057C95.6124 34.057 88.1736 37.2678 82.5643 43.0329L96.8988 56.98L111.233 70.9271C110.501 71.6795 109.381 72.5483 107.866 73.1925C106.347 73.8388 104.904 74.057 103.772 74.057V54.057ZM96.8988 56.98L82.5589 43.0384C76.163 49.6171 74.1338 57.7967 74.1338 64.88H94.1338H114.134C114.134 64.9908 114.121 65.7875 113.702 66.984C113.256 68.2586 112.456 69.6695 111.239 70.9216L96.8988 56.98ZM94.1338 64.88H74.1338C74.1338 72.0165 76.1796 79.9643 82.1879 86.4875L96.8988 72.938L111.61 59.3885C112.645 60.513 113.345 61.7726 113.742 62.9313C114.118 64.0264 114.134 64.7586 114.134 64.88H94.1338ZM96.8988 72.938L82.5643 86.8851C88.1736 92.6502 95.6124 95.861 103.772 95.861V75.861V55.861C104.904 55.861 106.347 56.0792 107.866 56.7255C109.381 57.3697 110.501 58.2385 111.233 58.9909L96.8988 72.938ZM103.772 75.861V95.861C111.946 95.861 119.468 92.6302 125.095 86.682L110.566 72.938L96.0364 59.194C96.8191 58.3666 97.9997 57.4386 99.5806 56.7584C101.161 56.0785 102.642 55.861 103.772 55.861V75.861ZM110.566 72.938L124.9 86.8851C131.254 80.3545 133.41 72.2219 133.41 64.959H113.41H93.4098C93.4098 64.7876 93.4329 63.9644 93.8597 62.7668C94.3122 61.4973 95.0981 60.1556 96.2313 58.9909L110.566 72.938ZM150.201 50.265H130.201C130.201 59.1157 136.018 66.9139 144.502 69.4359C152.986 71.9578 162.118 68.6038 166.953 61.1904L150.201 50.265ZM156.126 44.577L166.131 61.8943C166.227 61.8393 166.322 61.7835 166.416 61.7269L156.126 44.577ZM164.026 42.444H184.026C184.026 31.3983 175.072 22.444 164.026 22.444V42.444ZM164.026 56.743V76.743C175.072 76.743 184.026 67.7887 184.026 56.743H164.026ZM152.729 58.955L165.626 74.2408C165.718 74.1636 165.809 74.0854 165.899 74.0065L152.729 58.955ZM150.201 87V107C161.247 107 170.201 98.0457 170.201 87H150.201ZM136.692 87H116.692C116.692 98.0457 125.646 107 136.692 107V87ZM136.692 42.918V22.918C125.646 22.918 116.692 31.8723 116.692 42.918H136.692ZM150.201 42.918H170.201C170.201 31.8723 161.247 22.918 150.201 22.918V42.918ZM150.201 50.265L166.953 61.1904C166.959 61.1814 166.888 61.2908 166.718 61.4538C166.545 61.6198 166.34 61.7738 166.131 61.8943L156.126 44.577L146.12 27.2597C140.877 30.2894 136.645 34.4394 133.449 39.3396L150.201 50.265ZM156.126 44.577L166.416 61.7269C166.038 61.9537 165.583 62.1533 165.092 62.2858C164.607 62.4168 164.229 62.444 164.026 62.444V42.444V22.444C157.686 22.444 151.467 24.0487 145.836 27.4271L156.126 44.577ZM164.026 42.444H144.026V56.743H164.026H184.026V42.444H164.026ZM164.026 56.743V36.743H160.313V56.743V76.743H164.026V56.743ZM160.313 56.743V36.743C154.467 36.743 146.347 37.9642 139.559 43.9035L152.729 58.955L165.899 74.0065C162.482 76.9965 159.418 76.743 160.313 76.743V56.743ZM152.729 58.955L139.832 43.6692C131.413 50.7723 130.201 60.7395 130.201 66.539H150.201H170.201C170.201 66.1454 170.262 66.8762 169.807 68.2421C169.308 69.7369 168.13 72.1287 165.626 74.2408L152.729 58.955ZM150.201 66.539H130.201V87H150.201H170.201V66.539H150.201ZM150.201 87V67H136.692V87V107H150.201V87ZM136.692 87H156.692V42.918H136.692H116.692V87H136.692ZM136.692 42.918V62.918H150.201V42.918V22.918H136.692V42.918ZM150.201 42.918H130.201V50.265H150.201H170.201V42.918H150.201ZM214.012 42.918H234.012C234.012 31.8723 225.058 22.918 214.012 22.918V42.918ZM214.012 87V107C225.058 107 234.012 98.0457 234.012 87H214.012ZM200.503 87H180.503C180.503 98.0457 189.457 107 200.503 107V87ZM200.503 80.996H220.503C220.503 72.2733 214.85 64.5566 206.533 61.9267C198.216 59.2968 189.154 62.3602 184.139 69.4971L200.503 80.996ZM194.894 85.736L203.838 103.625C203.891 103.598 203.944 103.572 203.996 103.545L194.894 85.736ZM178.225 85.262L168.039 102.474C168.126 102.525 168.214 102.576 168.302 102.627L178.225 85.262ZM172.221 78.705L154.332 87.6493L172.221 78.705ZM170.088 42.918V22.918C159.042 22.918 150.088 31.8723 150.088 42.918H170.088ZM183.518 42.918H203.518C203.518 31.8723 194.564 22.918 183.518 22.918V42.918ZM185.809 73.728L171.204 87.3911L185.809 73.728ZM198.212 73.728L183.607 60.0649L198.212 73.728ZM200.503 42.918V22.918C189.457 22.918 180.503 31.8723 180.503 42.918H200.503ZM214.012 42.918H194.012V87H214.012H234.012V42.918H214.012ZM214.012 87V67H200.503V87V107H214.012V87ZM200.503 87H220.503V80.996H200.503H180.503V87H200.503ZM200.503 80.996L184.139 69.4971C184.467 69.031 184.827 68.6515 185.165 68.3666C185.494 68.0879 185.733 67.9576 185.792 67.9273L194.894 85.736L203.996 103.545C208.918 101.029 213.415 97.4069 216.867 92.4949L200.503 80.996ZM194.894 85.736L185.95 67.8475C186.271 67.6869 186.582 67.5831 186.84 67.5252C187.091 67.4688 187.21 67.474 187.152 67.474V87.474V107.474C192.793 107.474 198.481 106.303 203.838 103.625L194.894 85.736ZM187.152 87.474V67.474C186.929 67.474 186.969 67.4503 187.202 67.5081C187.449 67.569 187.787 67.6908 188.148 67.8971L178.225 85.262L168.302 102.627C174.292 106.049 180.775 107.474 187.152 107.474V87.474ZM178.225 85.262L188.411 68.0505C188.796 68.2782 189.193 68.5931 189.539 68.9708C189.879 69.3418 190.051 69.6444 190.11 69.7607L172.221 78.705L154.332 87.6493C157.365 93.7145 161.946 98.8677 168.039 102.474L178.225 85.262ZM172.221 78.705L190.11 69.7607C190.212 69.9658 190.213 70.0414 190.184 69.9047C190.153 69.7566 190.088 69.3665 190.088 68.672H170.088H150.088C150.088 74.9804 151.261 81.5065 154.332 87.6493L172.221 78.705ZM170.088 68.672H190.088V42.918H170.088H150.088V68.672H170.088ZM170.088 42.918V62.918H183.518V42.918V22.918H170.088V42.918ZM183.518 42.918H163.518V66.855H183.518H203.518V42.918H183.518ZM183.518 66.855H163.518C163.518 73.2155 165.22 80.9953 171.204 87.3911L185.809 73.728L200.414 60.0649C203.343 63.1954 203.518 66.3932 203.518 66.855H183.518ZM185.809 73.728L171.204 87.3911C177.107 93.7021 184.79 96.177 191.971 96.177V76.177V56.177C192.793 56.177 194.199 56.3101 195.882 56.9788C197.627 57.6724 199.188 58.7539 200.414 60.0649L185.809 73.728ZM191.971 76.177V96.177C199.069 96.177 206.834 93.7873 212.817 87.3911L198.212 73.728L183.607 60.0649C184.876 58.7078 186.468 57.6268 188.2 56.9469C189.863 56.2945 191.225 56.177 191.971 56.177V76.177ZM198.212 73.728L212.817 87.3911C218.801 80.9953 220.503 73.2155 220.503 66.855H200.503H180.503C180.503 66.3932 180.678 63.1954 183.607 60.0649L198.212 73.728ZM200.503 66.855H220.503V42.918H200.503H180.503V66.855H200.503ZM200.503 42.918V62.918H214.012V42.918V22.918H200.503V42.918ZM224.189 85.578L210.307 99.9749C210.481 100.143 210.658 100.308 210.838 100.469L224.189 85.578ZM224.189 75.071L210.561 60.4331C210.476 60.5127 210.391 60.593 210.307 60.6741L224.189 75.071ZM235.723 75.071L221.841 89.4679C221.925 89.549 222.01 89.6293 222.095 89.7089L235.723 75.071ZM235.723 85.578L249.332 100.234C249.339 100.228 249.345 100.222 249.352 100.216L235.723 85.578ZM230.035 87.632V67.632C230.781 67.632 231.982 67.7418 233.426 68.2493C234.914 68.7721 236.333 69.6041 237.54 70.6866L224.189 85.578L210.838 100.469C216.6 105.635 223.553 107.632 230.035 107.632V87.632ZM224.189 85.578L238.072 71.1811C239.106 72.1779 240.173 73.5841 240.942 75.397C241.711 77.2088 241.977 78.9452 241.977 80.364H221.977H201.977C201.977 87.8322 204.911 94.7722 210.307 99.9749L224.189 85.578ZM221.977 80.364H241.977C241.977 81.688 241.735 83.3743 240.984 85.1726C240.227 86.9829 239.156 88.4224 238.072 89.4679L224.189 75.071L210.307 60.6741C204.8 65.9842 201.977 73.0002 201.977 80.364H221.977ZM224.189 75.071L237.818 89.7089C236.636 90.8091 235.205 91.6928 233.652 92.2597C232.14 92.8112 230.86 92.938 230.035 92.938V72.938V52.938C223.347 52.938 216.297 55.0924 210.561 60.4331L224.189 75.071ZM230.035 72.938V92.938C229.138 92.938 227.77 92.7967 226.173 92.1978C224.532 91.5824 223.047 90.6308 221.841 89.4679L235.723 75.071L249.606 60.6741C243.905 55.1771 236.795 52.938 230.035 52.938V72.938ZM235.723 75.071L222.095 89.7089C221.013 88.7013 219.893 87.2665 219.087 85.4052C218.283 83.5483 218.014 81.7797 218.014 80.364H238.014H258.014C258.014 72.7652 254.986 65.6792 249.352 60.4331L235.723 75.071ZM238.014 80.364H218.014C218.014 78.8509 218.31 77.0316 219.131 75.1625C219.949 73.3007 221.065 71.8995 222.095 70.9401L235.723 85.578L249.352 100.216C254.869 95.0792 258.014 88.0701 258.014 80.364H238.014ZM235.723 85.578L222.114 70.9221C223.35 69.7745 224.827 68.8764 226.402 68.3074C227.932 67.7551 229.219 67.632 230.035 67.632V87.632V107.632C236.581 107.632 243.598 105.558 249.332 100.234L235.723 85.578ZM315.294 47.421L300.926 61.3332C300.964 61.3722 301.001 61.4109 301.039 61.4495L315.294 47.421ZM320.192 87V107C331.238 107 340.192 98.0457 340.192 87H320.192ZM306.762 87H286.762C286.762 98.0457 295.717 107 306.762 107V87ZM304.471 56.506L289.85 70.1524C290.007 70.3204 290.167 70.4856 290.329 70.6481L304.471 56.506ZM292.068 56.506L277.689 42.6056L277.68 42.6141L292.068 56.506ZM289.856 87V107C300.902 107 309.856 98.0457 309.856 87H289.856ZM276.426 87H256.426C256.426 98.0457 265.381 107 276.426 107V87ZM274.135 56.506L259.514 70.1524C259.671 70.3204 259.831 70.4856 259.993 70.6481L274.135 56.506ZM261.732 56.506L247.353 42.6056L247.344 42.6141L261.732 56.506ZM259.52 87V107C270.566 107 279.52 98.0457 279.52 87H259.52ZM246.011 87H226.011C226.011 98.0457 234.966 107 246.011 107V87ZM246.011 42.918V22.918C234.966 22.918 226.011 31.8723 226.011 42.918H246.011ZM259.52 42.918H279.52C279.52 31.8723 270.566 22.918 259.52 22.918V42.918ZM259.52 48.448H239.52C239.52 57.0735 245.05 64.7273 253.239 67.4361C261.428 70.145 270.432 67.2985 275.575 60.3745L259.52 48.448ZM264.892 44.103L273.491 62.1602C273.607 62.1051 273.722 62.0489 273.837 61.9915L264.892 44.103ZM281.245 44.577L271.593 62.0938C271.643 62.1211 271.692 62.1482 271.742 62.1751L281.245 44.577ZM287.407 50.66L269.957 60.4321C273.403 66.5861 279.836 70.4698 286.887 70.6532C293.938 70.8366 300.564 67.2925 304.326 61.326L287.407 50.66ZM302.259 42.444V62.444C302.984 62.444 302.963 62.5525 302.492 62.3726C302.26 62.2838 301.974 62.1456 301.673 61.947C301.371 61.7481 301.119 61.5326 300.926 61.3332L315.294 47.421L329.663 33.5088C321.988 25.5821 312.065 22.444 302.259 22.444V42.444ZM315.294 47.421L301.039 61.4495C300.807 61.2133 300.596 60.9442 300.423 60.6649C300.253 60.3884 300.159 60.1665 300.116 60.0447C300.034 59.813 300.192 60.1164 300.192 61.246H320.192H340.192C340.192 51.5689 337.413 41.3831 329.549 33.3925L315.294 47.421ZM320.192 61.246H300.192V87H320.192H340.192V61.246H320.192ZM320.192 87V67H306.762V87V107H320.192V87ZM306.762 87H326.762V63.063H306.762H286.762V87H306.762ZM306.762 63.063H326.762C326.762 56.6578 324.966 48.7169 318.613 42.3639L304.471 56.506L290.329 70.6481C288.815 69.1344 287.846 67.4259 287.309 65.8876C286.803 64.4388 286.762 63.3928 286.762 63.063H306.762ZM304.471 56.506L319.092 42.8596C313.029 36.363 305.182 34.136 298.309 34.136V54.136V74.136C297.642 74.136 296.311 74.0361 294.645 73.3954C292.897 72.7229 291.22 71.6196 289.85 70.1524L304.471 56.506ZM298.309 54.136V34.136C291.412 34.136 283.719 36.3668 277.689 42.6056L292.068 56.506L306.448 70.4064C305.141 71.7586 303.548 72.7902 301.874 73.4257C300.272 74.0341 298.984 74.136 298.309 74.136V54.136ZM292.068 56.506L277.68 42.6141C271.521 48.9933 269.856 56.8417 269.856 63.063H289.856H309.856C309.856 63.5963 309.666 67.0734 306.456 70.3979L292.068 56.506ZM289.856 63.063H269.856V87H289.856H309.856V63.063H289.856ZM289.856 87V67H276.426V87V107H289.856V87ZM276.426 87H296.426V63.063H276.426H256.426V87H276.426ZM276.426 63.063H296.426C296.426 56.6578 294.63 48.7169 288.277 42.3639L274.135 56.506L259.993 70.6481C258.479 69.1344 257.51 67.4259 256.973 65.8876C256.467 64.4388 256.426 63.3928 256.426 63.063H276.426ZM274.135 56.506L288.756 42.8596C282.693 36.363 274.846 34.136 267.973 34.136V54.136V74.136C267.306 74.136 265.975 74.0361 264.309 73.3954C262.561 72.7229 260.884 71.6196 259.514 70.1524L274.135 56.506ZM267.973 54.136V34.136C261.076 34.136 253.383 36.3668 247.353 42.6056L261.732 56.506L276.112 70.4064C274.805 71.7587 273.212 72.7902 271.538 73.4257C269.936 74.0341 268.648 74.136 267.973 74.136V54.136ZM261.732 56.506L247.344 42.6141C241.185 48.9933 239.52 56.8417 239.52 63.063H259.52H279.52C279.52 63.5963 279.33 67.0734 276.12 70.3979L261.732 56.506ZM259.52 63.063H239.52V87H259.52H279.52V63.063H259.52ZM259.52 87V67H246.011V87V107H259.52V87ZM246.011 87H266.011V42.918H246.011H226.011V87H246.011ZM246.011 42.918V62.918H259.52V42.918V22.918H246.011V42.918ZM259.52 42.918H239.52V48.448H259.52H279.52V42.918H259.52ZM259.52 48.448L275.575 60.3745C275.255 60.8061 274.875 61.1998 274.468 61.5295C274.065 61.8554 273.715 62.0535 273.491 62.1602L264.892 44.103L256.294 26.0458C251.336 28.4066 246.912 31.8817 243.465 36.5215L259.52 48.448ZM264.892 44.103L273.837 61.9915C273.421 62.1992 273.04 62.322 272.744 62.3873C272.458 62.4507 272.325 62.444 272.397 62.444V42.444V22.444C266.904 22.444 261.276 23.5503 255.948 26.2144L264.892 44.103ZM272.397 42.444V62.444C272.623 62.444 272.607 62.4675 272.411 62.4203C272.204 62.3703 271.91 62.2686 271.593 62.0938L281.245 44.577L290.897 27.0602C285.003 23.8126 278.658 22.444 272.397 22.444V42.444ZM281.245 44.577L271.742 62.1751C271.453 62.019 271.081 61.7635 270.71 61.3973C270.34 61.032 270.096 60.6795 269.957 60.4321L287.407 50.66L304.857 40.8879C301.546 34.9749 296.749 30.2193 290.748 26.9789L281.245 44.577ZM287.407 50.66L304.326 61.326C304.202 61.5223 304.046 61.7119 303.883 61.8663C303.725 62.017 303.634 62.0639 303.683 62.0356L293.648 44.735L283.614 27.4344C278.364 30.4791 273.849 34.6639 270.489 39.994L287.407 50.66ZM293.648 44.735L303.683 62.0356C303.504 62.1392 303.239 62.2591 302.918 62.3444C302.6 62.4291 302.361 62.444 302.259 62.444V42.444V22.444C295.704 22.444 289.361 24.1008 283.614 27.4344L293.648 44.735ZM338.014 84.867L328.532 102.476C328.569 102.496 328.607 102.516 328.644 102.536L338.014 84.867ZM329.877 76.967L312.496 86.861C312.534 86.9278 312.572 86.9945 312.611 87.0609L329.877 76.967ZM329.956 53.03L347.222 63.1239C347.244 63.0858 347.267 63.0476 347.289 63.0093L329.956 53.03ZM338.172 45.051L347.542 62.7202V62.7202L338.172 45.051ZM361.556 45.051L352.186 62.7202V62.7202L361.556 45.051ZM369.772 53.03L352.44 63.0093C352.462 63.0476 352.484 63.0858 352.506 63.1239L369.772 53.03ZM369.693 76.967L352.475 66.7924C352.459 66.8193 352.443 66.8461 352.427 66.8731L369.693 76.967ZM361.398 84.867L352.138 67.14C352.101 67.1592 352.065 67.1784 352.028 67.1978L361.398 84.867ZM356.263 73.096L341.923 59.1544C341.856 59.2236 341.789 59.2933 341.723 59.3635L356.263 73.096ZM356.342 56.822L341.599 70.3365C341.666 70.4097 341.734 70.4823 341.802 70.5545L356.342 56.822ZM343.307 56.822L357.859 70.5423C357.923 70.4741 357.987 70.4055 358.05 70.3365L343.307 56.822ZM343.228 73.096L328.28 86.3833C328.348 86.4595 328.416 86.5353 328.485 86.6105L343.228 73.096ZM349.706 87.632V67.632C348.329 67.632 347.7 67.365 347.384 67.1978L338.014 84.867L328.644 102.536C335.281 106.056 342.446 107.632 349.706 107.632V87.632ZM338.014 84.867L347.496 67.2576C347.422 67.2177 347.383 67.1905 347.368 67.1797C347.354 67.1691 347.348 67.1635 347.344 67.1599C347.34 67.1562 347.324 67.1402 347.295 67.1028C347.265 67.0648 347.213 66.9924 347.143 66.8731L329.877 76.967L312.611 87.0609C316.429 93.5905 321.806 98.8545 328.532 102.476L338.014 84.867ZM329.877 76.967L347.258 67.073C347.246 67.0514 347.185 66.9434 347.117 66.6672C347.047 66.3763 346.954 65.832 346.954 64.959H326.954H306.954C306.954 72.4388 308.569 79.962 312.496 86.861L329.877 76.967ZM326.954 64.959H346.954C346.954 64.1704 347.041 63.6964 347.1 63.4607C347.156 63.2393 347.206 63.1522 347.222 63.1239L329.956 53.03L312.69 42.9361C308.656 49.8366 306.954 57.3953 306.954 64.959H326.954ZM329.956 53.03L347.289 63.0093C347.354 62.8957 347.401 62.8314 347.423 62.8031C347.444 62.7754 347.451 62.7695 347.445 62.7758C347.438 62.7822 347.434 62.7853 347.438 62.782C347.443 62.7784 347.474 62.7564 347.542 62.7202L338.172 45.051L328.802 27.3818C321.934 31.0241 316.464 36.3803 312.624 43.0507L329.956 53.03ZM338.172 45.051L347.542 62.7202C347.858 62.553 348.487 62.286 349.864 62.286V42.286V22.286C342.604 22.286 335.439 23.8623 328.802 27.3818L338.172 45.051ZM349.864 42.286V62.286C351.242 62.286 351.871 62.553 352.186 62.7202L361.556 45.051L370.926 27.3818C364.29 23.8623 357.124 22.286 349.864 22.286V42.286ZM361.556 45.051L352.186 62.7202C352.254 62.7564 352.285 62.7784 352.29 62.782C352.295 62.7853 352.29 62.7822 352.284 62.7758C352.277 62.7695 352.284 62.7754 352.306 62.8031C352.328 62.8314 352.374 62.8957 352.44 63.0093L369.772 53.03L387.105 43.0507C383.264 36.3803 377.795 31.0241 370.926 27.3818L361.556 45.051ZM369.772 53.03L352.506 63.1239C352.523 63.1522 352.573 63.2393 352.628 63.4607C352.688 63.6964 352.774 64.1704 352.774 64.959H372.774H392.774C392.774 57.3953 391.072 49.8366 387.038 42.9361L369.772 53.03ZM372.774 64.959H352.774C352.774 66.3553 352.493 66.7607 352.475 66.7924L369.693 76.967L386.912 87.1416C391.001 80.2213 392.774 72.6214 392.774 64.959H372.774ZM369.693 76.967L352.427 66.8731C352.377 66.959 352.344 67.0031 352.332 67.0179C352.321 67.0322 352.319 67.0324 352.325 67.0267C352.331 67.0211 352.329 67.0247 352.309 67.0387C352.289 67.0531 352.236 67.0888 352.138 67.14L361.398 84.867L370.659 102.594C377.506 99.0168 383.052 93.7442 386.959 87.0609L369.693 76.967ZM361.398 84.867L352.028 67.1978C351.713 67.365 351.084 67.632 349.706 67.632V87.632V107.632C356.966 107.632 364.132 106.056 370.768 102.536L361.398 84.867ZM349.706 75.94V95.94C357.855 95.94 365.28 92.677 370.803 86.8285L356.263 73.096L341.723 59.3635C342.509 58.5309 343.705 57.582 345.323 56.8806C346.945 56.1771 348.489 55.94 349.706 55.94V75.94ZM356.263 73.096L370.603 87.0376C377.157 80.296 379.028 71.9039 379.028 64.959H359.028H339.028C339.028 65.0226 339.016 64.3375 339.4 63.205C339.814 61.9867 340.606 60.5095 341.923 59.1544L356.263 73.096ZM359.028 64.959H379.028C379.028 58.1606 377.265 49.8473 370.882 43.0895L356.342 56.822L341.802 70.5545C339.001 67.5887 339.028 64.7001 339.028 64.959H359.028ZM356.342 56.822L371.085 43.3075C365.545 37.2631 358.03 33.978 349.864 33.978V53.978V73.978C348.65 73.978 347.064 73.7417 345.379 73.0019C343.693 72.2614 342.435 71.2487 341.599 70.3365L356.342 56.822ZM349.864 53.978V33.978C341.776 33.978 334.192 37.1684 328.564 43.3075L343.307 56.822L358.05 70.3365C357.175 71.2912 355.891 72.3075 354.208 73.0374C352.536 73.7626 350.996 73.978 349.864 73.978V53.978ZM343.307 56.822L328.755 43.1017C322.296 49.9524 320.7 58.3914 320.7 64.959H340.7H360.7C360.7 64.3639 360.842 67.3783 357.859 70.5423L343.307 56.822ZM340.7 64.959H320.7C320.7 71.4709 322.26 79.6111 328.28 86.3833L343.228 73.096L358.176 59.8087C360.825 62.7889 360.7 65.5044 360.7 64.959H340.7ZM343.228 73.096L328.485 86.6105C334.026 92.6548 341.541 95.94 349.706 95.94V75.94V55.94C350.92 55.94 352.506 56.1763 354.191 56.9161C355.878 57.6566 357.135 58.6693 357.971 59.5815L343.228 73.096ZM421.258 68.198V88.198C431.417 88.198 439.962 80.5823 441.126 70.4905L421.258 68.198ZM390.685 68.198V48.198C385.114 48.198 379.796 50.5215 376.011 54.609C372.225 58.6965 370.317 64.1775 370.744 69.7319L390.685 68.198ZM393.292 74.518L379.4 88.906C379.568 89.0683 379.739 89.2276 379.913 89.3839L393.292 74.518ZM406.09 72.385V52.385C398.297 52.385 391.214 56.9111 387.941 63.9825L406.09 72.385ZM420.468 72.385L439.85 77.3186C441.373 71.3357 440.047 64.9847 436.258 60.1105C432.469 55.2362 426.642 52.385 420.468 52.385V72.385ZM416.439 80.206L401.132 67.334C401.074 67.4027 401.017 67.4718 400.96 67.5412L416.439 80.206ZM409.25 85.657L417.526 103.864L409.25 85.657ZM387.999 84.867L378.403 102.414L387.999 84.867ZM380.099 76.967L397.595 67.277L380.099 76.967ZM380.02 52.951L362.524 43.261C362.486 43.3301 362.448 43.3994 362.411 43.469L380.02 52.951ZM387.92 45.051L397.516 62.5984L397.516 62.5984L387.92 45.051ZM410.909 44.972L401.41 62.5724V62.5724L410.909 44.972ZM418.651 52.635L401.168 62.3479C401.207 62.4181 401.246 62.488 401.286 62.5578L418.651 52.635ZM407.67 60.693V80.693C418.716 80.693 427.67 71.7387 427.67 60.693H407.67ZM405.3 55.163L418.399 40.0492V40.0492L405.3 55.163ZM393.608 55.084L380.804 39.7196C380.719 39.7909 380.634 39.863 380.549 39.9358L393.608 55.084ZM390.764 60.693L370.992 57.6842C370.115 63.4475 371.796 69.3066 375.595 73.728C379.395 78.1494 384.934 80.693 390.764 80.693V60.693ZM421.495 64.248H401.495C401.495 64.6809 401.468 65.2297 401.39 65.9055L421.258 68.198L441.126 70.4905C441.364 68.4276 441.495 66.3431 441.495 64.248H421.495ZM421.258 68.198V48.198H390.685V68.198V88.198H421.258V68.198ZM390.685 68.198L370.744 69.7319C371.217 75.8804 373.418 83.1299 379.4 88.906L393.292 74.518L407.184 60.13C410.112 62.9567 410.574 65.993 410.626 66.6641L390.685 68.198ZM393.292 74.518L379.913 89.3839C385.419 94.3396 392.206 96.651 399.059 96.651V76.651V56.651C400.047 56.651 401.376 56.812 402.857 57.3597C404.358 57.9148 405.651 58.7338 406.671 59.6521L393.292 74.518ZM399.059 76.651V96.651C403.565 96.651 408.773 95.6842 413.719 92.6833C418.759 89.6257 422.158 85.2838 424.239 80.7875L406.09 72.385L387.941 63.9825C388.706 62.3302 390.275 60.1213 392.97 58.4857C395.572 56.9068 397.924 56.651 399.059 56.651V76.651ZM406.09 72.385V92.385H420.468V72.385V52.385H406.09V72.385ZM420.468 72.385L401.086 67.4514C401.083 67.4625 401.085 67.4543 401.093 67.4317C401.102 67.4089 401.114 67.3816 401.128 67.3536C401.143 67.3257 401.154 67.3069 401.16 67.2992C401.165 67.2917 401.158 67.3034 401.132 67.334L416.439 80.206L431.746 93.078C435.608 88.4861 438.36 83.1734 439.85 77.3186L420.468 72.385ZM416.439 80.206L400.96 67.5412C400.983 67.5123 401.014 67.4791 401.049 67.4454C401.084 67.4118 401.114 67.3864 401.136 67.37C401.157 67.3538 401.161 67.3532 401.14 67.3657C401.118 67.3784 401.065 67.4081 400.974 67.4497L409.25 85.657L417.526 103.864C423.038 101.359 427.957 97.7119 431.918 92.8708L416.439 80.206ZM409.25 85.657L400.974 67.4497C400.952 67.4598 400.863 67.4987 400.665 67.539C400.46 67.5806 400.096 67.632 399.533 67.632V87.632V107.632C405.61 107.632 411.722 106.503 417.526 103.864L409.25 85.657ZM399.533 87.632V67.632C398.145 67.632 397.673 67.3623 397.595 67.3196L387.999 84.867L378.403 102.414C385.066 106.058 392.284 107.632 399.533 107.632V87.632ZM387.999 84.867L397.595 67.3196C397.573 67.3072 397.56 67.2995 397.557 67.2971C397.553 67.2947 397.556 67.2965 397.564 67.3027C397.573 67.3089 397.584 67.318 397.598 67.3299C397.611 67.3417 397.625 67.3544 397.638 67.3674C397.651 67.3803 397.661 67.3914 397.668 67.3998C397.676 67.408 397.678 67.4115 397.676 67.4087C397.674 67.4058 397.666 67.3949 397.652 67.3743C397.639 67.3536 397.62 67.3218 397.595 67.277L380.099 76.967L362.603 86.657C366.299 93.3296 371.643 98.7176 378.403 102.414L387.999 84.867ZM380.099 76.967L397.595 67.277C397.575 67.241 397.503 67.1051 397.428 66.7882C397.349 66.4572 397.255 65.8714 397.255 64.959H377.255H357.255C357.255 72.3488 358.804 79.7974 362.603 86.657L380.099 76.967ZM377.255 64.959H397.255C397.255 63.0956 397.613 62.4626 397.629 62.433L380.02 52.951L362.411 43.469C358.74 50.2861 357.255 57.6584 357.255 64.959H377.255ZM380.02 52.951L397.516 62.641C397.541 62.5962 397.56 62.5644 397.573 62.5437C397.587 62.5231 397.595 62.5122 397.597 62.5093C397.599 62.5065 397.597 62.51 397.589 62.5182C397.582 62.5266 397.572 62.5377 397.559 62.5506C397.546 62.5636 397.533 62.5763 397.519 62.5881C397.505 62.6 397.494 62.6091 397.485 62.6153C397.477 62.6215 397.474 62.6233 397.478 62.6209C397.481 62.6185 397.494 62.6108 397.516 62.5984L387.92 45.051L378.324 27.5036C371.564 31.2004 366.22 36.5884 362.524 43.261L380.02 52.951ZM387.92 45.051L397.516 62.5984C397.559 62.5749 398.047 62.286 399.533 62.286V42.286V22.286C392.276 22.286 385.022 23.8405 378.324 27.5036L387.92 45.051ZM399.533 42.286V62.286C400.924 62.286 401.376 62.554 401.41 62.5724L410.909 44.972L420.408 27.3716C413.806 23.8087 406.673 22.286 399.533 22.286V42.286ZM410.909 44.972L401.41 62.5724C401.442 62.5896 401.434 62.5876 401.398 62.5611C401.361 62.5342 401.314 62.4948 401.264 62.4452C401.213 62.3957 401.177 62.3522 401.156 62.324C401.135 62.2965 401.141 62.3 401.168 62.3479L418.651 52.635L436.134 42.9221C432.45 36.2905 427.109 30.9883 420.408 27.3716L410.909 44.972ZM418.651 52.635L401.286 62.5578C401.271 62.5312 401.308 62.5801 401.358 62.7841C401.412 63.0027 401.495 63.4656 401.495 64.248H421.495H441.495C441.495 56.8983 439.895 49.5 436.016 42.7122L418.651 52.635ZM407.67 60.693H427.67C427.67 53.2807 424.868 45.6562 418.399 40.0492L405.3 55.163L392.201 70.2768C390.805 69.067 389.542 67.4287 388.695 65.4509C387.87 63.5259 387.67 61.8253 387.67 60.693H407.67ZM405.3 55.163L418.399 40.0492C412.696 35.107 405.872 33.109 399.375 33.109V53.109V73.109C398.625 73.109 397.464 72.9979 396.083 72.5192C394.666 72.0282 393.333 71.2576 392.201 70.2768L405.3 55.163ZM399.375 53.109V33.109C392.938 33.109 386.349 35.099 380.804 39.7196L393.608 55.084L406.412 70.4484C405.352 71.3319 404.089 72.0532 402.715 72.5239C401.366 72.9859 400.197 73.109 399.375 73.109V53.109ZM393.608 55.084L380.549 39.9358C374.672 45.0025 371.917 51.6018 370.992 57.6842L390.764 60.693L410.536 63.7018C410.454 64.2456 410.224 65.2674 409.589 66.5184C408.931 67.8165 407.957 69.1198 406.667 70.2322L393.608 55.084ZM390.764 60.693V80.693H407.67V60.693V40.693H390.764V60.693Z" fill="white" mask="url(#path-5-outside-2_1_132)"/>
</svg>
