<?xml version="1.0" encoding="UTF-8"?>
<svg viewBox="0 0 2140 2500" xmlns="http://www.w3.org/2000/svg">
  <defs>
    <style>
      .cls-2 {
        fill: #cfb2c1
      }

      .cls-3 {
        fill: #c17b9e
      }

      .cls-4 {
        fill: #7a3e65
      }

      .cls-5 {
        fill: #512843
      }
    </style>
  </defs>
  <polygon class="cls-3" points="1640.9 277.6 1640.9 665.9 1070 499.5 1070 1997.1 1960.5 1740.4 1960.5 430.2" />
  <polygon class="cls-4" points="179.5 756.3 179.5 2063 499.1 2219 499.1 1830.7 1070 1997.1 1070 499.5" />
  <polygon class="cls-3" points="732.5 1896.9 499.1 1830.7 499.1 2219 732.5 2147.5" />
  <polygon class="cls-4" points="1407.5 597.9 1640.9 665.9 1640.9 277.6 1407.5 349.1" />
  <path class="cls-3" d="m685.8 1508.3 384.2 45.1 2.9-4.3 1.6-600.9-4.4-4.9-477.2 36.8v536.3" />
  <polyline class="cls-4" points="1454.2 1508.3 1070 1553.4 1070 943.2 1547.6 980.2 1547.6 1516.6" />
  <polygon class="cls-5" points="1070 920.2 592.8 980 1070 1021.5 1547.6 980.2" />
  <polygon class="cls-2" points="1074.5 1475.3 1070 1474.9 592.8 1516.4 1070 1578 1547.6 1516.6" />
</svg>