<?xml version="1.0" encoding="utf-8"?>
<svg version="1.1" xmlns="http://www.w3.org/2000/svg" xmlns:xlink="http://www.w3.org/1999/xlink" width="1000" height="1000" viewBox="0 0 1000 1000" enable-background="new 0 0 1000 1000" xml:space="preserve"><g transform="translate(0,0) scale(1.0,1.0)"><svg width="1000" height="1000" viewBox="0 0 660 660" enable-background="new 0 0 1000 1000" xml:space="preserve"><rect x="0" y="0" width="660" height="660" fill="rgb(255,255,255)" opacity="0.0" /><rect x="241.0" y="81.0" rx="6.6666665" ry="6.6666665" width="18.0" height="18.0" fill="rgb(103,176,234)" opacity="1.0" /><rect x="261.0" y="81.0" rx="6.6666665" ry="6.6666665" width="18.0" height="18.0" fill="rgb(103,176,234)" opacity="1.0" /><rect x="341.0" y="81.0" rx="6.6666665" ry="6.6666665" width="18.0" height="18.0" fill="rgb(103,176,234)" opacity="1.0" /><rect x="361.0" y="81.0" rx="6.6666665" ry="6.6666665" width="18.0" height="18.0" fill="rgb(103,176,234)" opacity="1.0" /><rect x="301.0" y="101.0" rx="6.6666665" ry="6.6666665" width="18.0" height="18.0" fill="rgb(103,176,234)" opacity="1.0" /><rect x="341.0" y="101.0" rx="6.6666665" ry="6.6666665" width="18.0" height="18.0" fill="rgb(103,176,234)" opacity="1.0" /><rect x="361.0" y="101.0" rx="6.6666665" ry="6.6666665" width="18.0" height="18.0" fill="rgb(103,176,234)" opacity="1.0" /><rect x="401.0" y="101.0" rx="6.6666665" ry="6.6666665" width="18.0" height="18.0" fill="rgb(103,176,234)" opacity="1.0" /><rect x="241.0" y="121.0" rx="6.6666665" ry="6.6666665" width="18.0" height="18.0" fill="rgb(103,176,234)" opacity="1.0" /><rect x="281.0" y="121.0" rx="6.6666665" ry="6.6666665" width="18.0" height="18.0" fill="rgb(103,176,234)" opacity="1.0" /><rect x="341.0" y="121.0" rx="6.6666665" ry="6.6666665" width="18.0" height="18.0" fill="rgb(103,176,234)" opacity="1.0" /><rect x="361.0" y="121.0" rx="6.6666665" ry="6.6666665" width="18.0" height="18.0" fill="rgb(103,176,234)" opacity="1.0" /><rect x="261.0" y="141.0" rx="6.6666665" ry="6.6666665" width="18.0" height="18.0" fill="rgb(103,176,234)" opacity="1.0" /><rect x="301.0" y="141.0" rx="6.6666665" ry="6.6666665" width="18.0" height="18.0" fill="rgb(103,176,234)" opacity="1.0" /><rect x="361.0" y="141.0" rx="6.6666665" ry="6.6666665" width="18.0" height="18.0" fill="rgb(103,176,234)" opacity="1.0" /><rect x="401.0" y="141.0" rx="6.6666665" ry="6.6666665" width="18.0" height="18.0" fill="rgb(103,176,234)" opacity="1.0" /><rect x="261.0" y="161.0" rx="6.6666665" ry="6.6666665" width="18.0" height="18.0" fill="rgb(103,176,234)" opacity="1.0" /><rect x="301.0" y="161.0" rx="6.6666665" ry="6.6666665" width="18.0" height="18.0" fill="rgb(103,176,234)" opacity="1.0" /><rect x="341.0" y="161.0" rx="6.6666665" ry="6.6666665" width="18.0" height="18.0" fill="rgb(103,176,234)" opacity="1.0" /><rect x="381.0" y="161.0" rx="6.6666665" ry="6.6666665" width="18.0" height="18.0" fill="rgb(103,176,234)" opacity="1.0" /><rect x="401.0" y="161.0" rx="6.6666665" ry="6.6666665" width="18.0" height="18.0" fill="rgb(103,176,234)" opacity="1.0" /><rect x="241.0" y="181.0" rx="6.6666665" ry="6.6666665" width="18.0" height="18.0" fill="rgb(103,176,234)" opacity="1.0" /><rect x="281.0" y="181.0" rx="6.6666665" ry="6.6666665" width="18.0" height="18.0" fill="rgb(103,176,234)" opacity="1.0" /><rect x="381.0" y="181.0" rx="6.6666665" ry="6.6666665" width="18.0" height="18.0" fill="rgb(103,176,234)" opacity="1.0" /><rect x="241.0" y="201.0" rx="6.6666665" ry="6.6666665" width="18.0" height="18.0" fill="rgb(103,176,234)" opacity="1.0" /><rect x="281.0" y="201.0" rx="6.6666665" ry="6.6666665" width="18.0" height="18.0" fill="rgb(103,176,234)" opacity="1.0" /><rect x="321.0" y="201.0" rx="6.6666665" ry="6.6666665" width="18.0" height="18.0" fill="rgb(103,176,234)" opacity="1.0" /><rect x="361.0" y="201.0" rx="6.6666665" ry="6.6666665" width="18.0" height="18.0" fill="rgb(103,176,234)" opacity="1.0" /><rect x="401.0" y="201.0" rx="6.6666665" ry="6.6666665" width="18.0" height="18.0" fill="rgb(103,176,234)" opacity="1.0" /><rect x="381.0" y="221.0" rx="6.6666665" ry="6.6666665" width="18.0" height="18.0" fill="rgb(103,176,234)" opacity="1.0" /><rect x="401.0" y="221.0" rx="6.6666665" ry="6.6666665" width="18.0" height="18.0" fill="rgb(103,176,234)" opacity="1.0" /><rect x="81.0" y="241.0" rx="6.6666665" ry="6.6666665" width="18.0" height="18.0" fill="rgb(103,176,234)" opacity="1.0" /><rect x="121.0" y="241.0" rx="6.6666665" ry="6.6666665" width="18.0" height="18.0" fill="rgb(103,176,234)" opacity="1.0" /><rect x="201.0" y="241.0" rx="6.6666665" ry="6.6666665" width="18.0" height="18.0" fill="rgb(103,176,234)" opacity="1.0" /><rect x="221.0" y="241.0" rx="6.6666665" ry="6.6666665" width="18.0" height="18.0" fill="rgb(103,176,234)" opacity="1.0" /><rect x="261.0" y="241.0" rx="6.6666665" ry="6.6666665" width="18.0" height="18.0" fill="rgb(103,176,234)" opacity="1.0" /><rect x="281.0" y="241.0" rx="6.6666665" ry="6.6666665" width="18.0" height="18.0" fill="rgb(103,176,234)" opacity="1.0" /><rect x="321.0" y="241.0" rx="6.6666665" ry="6.6666665" width="18.0" height="18.0" fill="rgb(103,176,234)" opacity="1.0" /><rect x="341.0" y="241.0" rx="6.6666665" ry="6.6666665" width="18.0" height="18.0" fill="rgb(103,176,234)" opacity="1.0" /><rect x="361.0" y="241.0" rx="6.6666665" ry="6.6666665" width="18.0" height="18.0" fill="rgb(103,176,234)" opacity="1.0" /><rect x="381.0" y="241.0" rx="6.6666665" ry="6.6666665" width="18.0" height="18.0" fill="rgb(103,176,234)" opacity="1.0" /><rect x="401.0" y="241.0" rx="6.6666665" ry="6.6666665" width="18.0" height="18.0" fill="rgb(103,176,234)" opacity="1.0" /><rect x="461.0" y="241.0" rx="6.6666665" ry="6.6666665" width="18.0" height="18.0" fill="rgb(103,176,234)" opacity="1.0" /><rect x="521.0" y="241.0" rx="6.6666665" ry="6.6666665" width="18.0" height="18.0" fill="rgb(103,176,234)" opacity="1.0" /><rect x="561.0" y="241.0" rx="6.6666665" ry="6.6666665" width="18.0" height="18.0" fill="rgb(103,176,234)" opacity="1.0" /><rect x="101.0" y="261.0" rx="6.6666665" ry="6.6666665" width="18.0" height="18.0" fill="rgb(103,176,234)" opacity="1.0" /><rect x="141.0" y="261.0" rx="6.6666665" ry="6.6666665" width="18.0" height="18.0" fill="rgb(103,176,234)" opacity="1.0" /><rect x="221.0" y="261.0" rx="6.6666665" ry="6.6666665" width="18.0" height="18.0" fill="rgb(103,176,234)" opacity="1.0" /><rect x="241.0" y="261.0" rx="6.6666665" ry="6.6666665" width="18.0" height="18.0" fill="rgb(103,176,234)" opacity="1.0" /><rect x="281.0" y="261.0" rx="6.6666665" ry="6.6666665" width="18.0" height="18.0" fill="rgb(103,176,234)" opacity="1.0" /><rect x="301.0" y="261.0" rx="6.6666665" ry="6.6666665" width="18.0" height="18.0" fill="rgb(103,176,234)" opacity="1.0" /><rect x="321.0" y="261.0" rx="6.6666665" ry="6.6666665" width="18.0" height="18.0" fill="rgb(103,176,234)" opacity="1.0" /><rect x="341.0" y="261.0" rx="6.6666665" ry="6.6666665" width="18.0" height="18.0" fill="rgb(103,176,234)" opacity="1.0" /><rect x="401.0" y="261.0" rx="6.6666665" ry="6.6666665" width="18.0" height="18.0" fill="rgb(103,176,234)" opacity="1.0" /><rect x="421.0" y="261.0" rx="6.6666665" ry="6.6666665" width="18.0" height="18.0" fill="rgb(103,176,234)" opacity="1.0" /><rect x="441.0" y="261.0" rx="6.6666665" ry="6.6666665" width="18.0" height="18.0" fill="rgb(103,176,234)" opacity="1.0" /><rect x="461.0" y="261.0" rx="6.6666665" ry="6.6666665" width="18.0" height="18.0" fill="rgb(103,176,234)" opacity="1.0" /><rect x="481.0" y="261.0" rx="6.6666665" ry="6.6666665" width="18.0" height="18.0" fill="rgb(103,176,234)" opacity="1.0" /><rect x="501.0" y="261.0" rx="6.6666665" ry="6.6666665" width="18.0" height="18.0" fill="rgb(103,176,234)" opacity="1.0" /><rect x="81.0" y="281.0" rx="6.6666665" ry="6.6666665" width="18.0" height="18.0" fill="rgb(103,176,234)" opacity="1.0" /><rect x="101.0" y="281.0" rx="6.6666665" ry="6.6666665" width="18.0" height="18.0" fill="rgb(103,176,234)" opacity="1.0" /><rect x="161.0" y="281.0" rx="6.6666665" ry="6.6666665" width="18.0" height="18.0" fill="rgb(103,176,234)" opacity="1.0" /><rect x="181.0" y="281.0" rx="6.6666665" ry="6.6666665" width="18.0" height="18.0" fill="rgb(103,176,234)" opacity="1.0" /><rect x="201.0" y="281.0" rx="6.6666665" ry="6.6666665" width="18.0" height="18.0" fill="rgb(103,176,234)" opacity="1.0" /><rect x="241.0" y="281.0" rx="6.6666665" ry="6.6666665" width="18.0" height="18.0" fill="rgb(103,176,234)" opacity="1.0" /><rect x="261.0" y="281.0" rx="6.6666665" ry="6.6666665" width="18.0" height="18.0" fill="rgb(103,176,234)" opacity="1.0" /><rect x="301.0" y="281.0" rx="6.6666665" ry="6.6666665" width="18.0" height="18.0" fill="rgb(103,176,234)" opacity="1.0" /><rect x="321.0" y="281.0" rx="6.6666665" ry="6.6666665" width="18.0" height="18.0" fill="rgb(103,176,234)" opacity="1.0" /><rect x="401.0" y="281.0" rx="6.6666665" ry="6.6666665" width="18.0" height="18.0" fill="rgb(103,176,234)" opacity="1.0" /><rect x="441.0" y="281.0" rx="6.6666665" ry="6.6666665" width="18.0" height="18.0" fill="rgb(103,176,234)" opacity="1.0" /><rect x="461.0" y="281.0" rx="6.6666665" ry="6.6666665" width="18.0" height="18.0" fill="rgb(103,176,234)" opacity="1.0" /><rect x="541.0" y="281.0" rx="6.6666665" ry="6.6666665" width="18.0" height="18.0" fill="rgb(103,176,234)" opacity="1.0" /><rect x="81.0" y="301.0" rx="6.6666665" ry="6.6666665" width="18.0" height="18.0" fill="rgb(103,176,234)" opacity="1.0" /><rect x="101.0" y="301.0" rx="6.6666665" ry="6.6666665" width="18.0" height="18.0" fill="rgb(103,176,234)" opacity="1.0" /><rect x="121.0" y="301.0" rx="6.6666665" ry="6.6666665" width="18.0" height="18.0" fill="rgb(103,176,234)" opacity="1.0" /><rect x="141.0" y="301.0" rx="6.6666665" ry="6.6666665" width="18.0" height="18.0" fill="rgb(103,176,234)" opacity="1.0" /><rect x="161.0" y="301.0" rx="6.6666665" ry="6.6666665" width="18.0" height="18.0" fill="rgb(103,176,234)" opacity="1.0" /><rect x="181.0" y="301.0" rx="6.6666665" ry="6.6666665" width="18.0" height="18.0" fill="rgb(103,176,234)" opacity="1.0" /><rect x="221.0" y="301.0" rx="6.6666665" ry="6.6666665" width="18.0" height="18.0" fill="rgb(103,176,234)" opacity="1.0" /><rect x="261.0" y="301.0" rx="6.6666665" ry="6.6666665" width="18.0" height="18.0" fill="rgb(103,176,234)" opacity="1.0" /><rect x="281.0" y="301.0" rx="6.6666665" ry="6.6666665" width="18.0" height="18.0" fill="rgb(103,176,234)" opacity="1.0" /><rect x="321.0" y="301.0" rx="6.6666665" ry="6.6666665" width="18.0" height="18.0" fill="rgb(103,176,234)" opacity="1.0" /><rect x="341.0" y="301.0" rx="6.6666665" ry="6.6666665" width="18.0" height="18.0" fill="rgb(103,176,234)" opacity="1.0" /><rect x="381.0" y="301.0" rx="6.6666665" ry="6.6666665" width="18.0" height="18.0" fill="rgb(103,176,234)" opacity="1.0" /><rect x="401.0" y="301.0" rx="6.6666665" ry="6.6666665" width="18.0" height="18.0" fill="rgb(103,176,234)" opacity="1.0" /><rect x="441.0" y="301.0" rx="6.6666665" ry="6.6666665" width="18.0" height="18.0" fill="rgb(103,176,234)" opacity="1.0" /><rect x="501.0" y="301.0" rx="6.6666665" ry="6.6666665" width="18.0" height="18.0" fill="rgb(103,176,234)" opacity="1.0" /><rect x="561.0" y="301.0" rx="6.6666665" ry="6.6666665" width="18.0" height="18.0" fill="rgb(103,176,234)" opacity="1.0" /><rect x="121.0" y="321.0" rx="6.6666665" ry="6.6666665" width="18.0" height="18.0" fill="rgb(103,176,234)" opacity="1.0" /><rect x="161.0" y="321.0" rx="6.6666665" ry="6.6666665" width="18.0" height="18.0" fill="rgb(103,176,234)" opacity="1.0" /><rect x="181.0" y="321.0" rx="6.6666665" ry="6.6666665" width="18.0" height="18.0" fill="rgb(103,176,234)" opacity="1.0" /><rect x="201.0" y="321.0" rx="6.6666665" ry="6.6666665" width="18.0" height="18.0" fill="rgb(103,176,234)" opacity="1.0" /><rect x="261.0" y="321.0" rx="6.6666665" ry="6.6666665" width="18.0" height="18.0" fill="rgb(103,176,234)" opacity="1.0" /><rect x="301.0" y="321.0" rx="6.6666665" ry="6.6666665" width="18.0" height="18.0" fill="rgb(103,176,234)" opacity="1.0" /><rect x="321.0" y="321.0" rx="6.6666665" ry="6.6666665" width="18.0" height="18.0" fill="rgb(103,176,234)" opacity="1.0" /><rect x="341.0" y="321.0" rx="6.6666665" ry="6.6666665" width="18.0" height="18.0" fill="rgb(103,176,234)" opacity="1.0" /><rect x="381.0" y="321.0" rx="6.6666665" ry="6.6666665" width="18.0" height="18.0" fill="rgb(103,176,234)" opacity="1.0" /><rect x="401.0" y="321.0" rx="6.6666665" ry="6.6666665" width="18.0" height="18.0" fill="rgb(103,176,234)" opacity="1.0" /><rect x="421.0" y="321.0" rx="6.6666665" ry="6.6666665" width="18.0" height="18.0" fill="rgb(103,176,234)" opacity="1.0" /><rect x="441.0" y="321.0" rx="6.6666665" ry="6.6666665" width="18.0" height="18.0" fill="rgb(103,176,234)" opacity="1.0" /><rect x="501.0" y="321.0" rx="6.6666665" ry="6.6666665" width="18.0" height="18.0" fill="rgb(103,176,234)" opacity="1.0" /><rect x="521.0" y="321.0" rx="6.6666665" ry="6.6666665" width="18.0" height="18.0" fill="rgb(103,176,234)" opacity="1.0" /><rect x="561.0" y="321.0" rx="6.6666665" ry="6.6666665" width="18.0" height="18.0" fill="rgb(103,176,234)" opacity="1.0" /><rect x="181.0" y="341.0" rx="6.6666665" ry="6.6666665" width="18.0" height="18.0" fill="rgb(103,176,234)" opacity="1.0" /><rect x="241.0" y="341.0" rx="6.6666665" ry="6.6666665" width="18.0" height="18.0" fill="rgb(103,176,234)" opacity="1.0" /><rect x="261.0" y="341.0" rx="6.6666665" ry="6.6666665" width="18.0" height="18.0" fill="rgb(103,176,234)" opacity="1.0" /><rect x="281.0" y="341.0" rx="6.6666665" ry="6.6666665" width="18.0" height="18.0" fill="rgb(103,176,234)" opacity="1.0" /><rect x="321.0" y="341.0" rx="6.6666665" ry="6.6666665" width="18.0" height="18.0" fill="rgb(103,176,234)" opacity="1.0" /><rect x="381.0" y="341.0" rx="6.6666665" ry="6.6666665" width="18.0" height="18.0" fill="rgb(103,176,234)" opacity="1.0" /><rect x="401.0" y="341.0" rx="6.6666665" ry="6.6666665" width="18.0" height="18.0" fill="rgb(103,176,234)" opacity="1.0" /><rect x="421.0" y="341.0" rx="6.6666665" ry="6.6666665" width="18.0" height="18.0" fill="rgb(103,176,234)" opacity="1.0" /><rect x="441.0" y="341.0" rx="6.6666665" ry="6.6666665" width="18.0" height="18.0" fill="rgb(103,176,234)" opacity="1.0" /><rect x="461.0" y="341.0" rx="6.6666665" ry="6.6666665" width="18.0" height="18.0" fill="rgb(103,176,234)" opacity="1.0" /><rect x="481.0" y="341.0" rx="6.6666665" ry="6.6666665" width="18.0" height="18.0" fill="rgb(103,176,234)" opacity="1.0" /><rect x="501.0" y="341.0" rx="6.6666665" ry="6.6666665" width="18.0" height="18.0" fill="rgb(103,176,234)" opacity="1.0" /><rect x="541.0" y="341.0" rx="6.6666665" ry="6.6666665" width="18.0" height="18.0" fill="rgb(103,176,234)" opacity="1.0" /><rect x="81.0" y="361.0" rx="6.6666665" ry="6.6666665" width="18.0" height="18.0" fill="rgb(103,176,234)" opacity="1.0" /><rect x="101.0" y="361.0" rx="6.6666665" ry="6.6666665" width="18.0" height="18.0" fill="rgb(103,176,234)" opacity="1.0" /><rect x="121.0" y="361.0" rx="6.6666665" ry="6.6666665" width="18.0" height="18.0" fill="rgb(103,176,234)" opacity="1.0" /><rect x="141.0" y="361.0" rx="6.6666665" ry="6.6666665" width="18.0" height="18.0" fill="rgb(103,176,234)" opacity="1.0" /><rect x="201.0" y="361.0" rx="6.6666665" ry="6.6666665" width="18.0" height="18.0" fill="rgb(103,176,234)" opacity="1.0" /><rect x="221.0" y="361.0" rx="6.6666665" ry="6.6666665" width="18.0" height="18.0" fill="rgb(103,176,234)" opacity="1.0" /><rect x="241.0" y="361.0" rx="6.6666665" ry="6.6666665" width="18.0" height="18.0" fill="rgb(103,176,234)" opacity="1.0" /><rect x="281.0" y="361.0" rx="6.6666665" ry="6.6666665" width="18.0" height="18.0" fill="rgb(103,176,234)" opacity="1.0" /><rect x="321.0" y="361.0" rx="6.6666665" ry="6.6666665" width="18.0" height="18.0" fill="rgb(103,176,234)" opacity="1.0" /><rect x="341.0" y="361.0" rx="6.6666665" ry="6.6666665" width="18.0" height="18.0" fill="rgb(103,176,234)" opacity="1.0" /><rect x="361.0" y="361.0" rx="6.6666665" ry="6.6666665" width="18.0" height="18.0" fill="rgb(103,176,234)" opacity="1.0" /><rect x="401.0" y="361.0" rx="6.6666665" ry="6.6666665" width="18.0" height="18.0" fill="rgb(103,176,234)" opacity="1.0" /><rect x="441.0" y="361.0" rx="6.6666665" ry="6.6666665" width="18.0" height="18.0" fill="rgb(103,176,234)" opacity="1.0" /><rect x="461.0" y="361.0" rx="6.6666665" ry="6.6666665" width="18.0" height="18.0" fill="rgb(103,176,234)" opacity="1.0" /><rect x="541.0" y="361.0" rx="6.6666665" ry="6.6666665" width="18.0" height="18.0" fill="rgb(103,176,234)" opacity="1.0" /><rect x="561.0" y="361.0" rx="6.6666665" ry="6.6666665" width="18.0" height="18.0" fill="rgb(103,176,234)" opacity="1.0" /><rect x="161.0" y="381.0" rx="6.6666665" ry="6.6666665" width="18.0" height="18.0" fill="rgb(103,176,234)" opacity="1.0" /><rect x="181.0" y="381.0" rx="6.6666665" ry="6.6666665" width="18.0" height="18.0" fill="rgb(103,176,234)" opacity="1.0" /><rect x="301.0" y="381.0" rx="6.6666665" ry="6.6666665" width="18.0" height="18.0" fill="rgb(103,176,234)" opacity="1.0" /><rect x="321.0" y="381.0" rx="6.6666665" ry="6.6666665" width="18.0" height="18.0" fill="rgb(103,176,234)" opacity="1.0" /><rect x="361.0" y="381.0" rx="6.6666665" ry="6.6666665" width="18.0" height="18.0" fill="rgb(103,176,234)" opacity="1.0" /><rect x="381.0" y="381.0" rx="6.6666665" ry="6.6666665" width="18.0" height="18.0" fill="rgb(103,176,234)" opacity="1.0" /><rect x="441.0" y="381.0" rx="6.6666665" ry="6.6666665" width="18.0" height="18.0" fill="rgb(103,176,234)" opacity="1.0" /><rect x="501.0" y="381.0" rx="6.6666665" ry="6.6666665" width="18.0" height="18.0" fill="rgb(103,176,234)" opacity="1.0" /><rect x="541.0" y="381.0" rx="6.6666665" ry="6.6666665" width="18.0" height="18.0" fill="rgb(103,176,234)" opacity="1.0" /><rect x="81.0" y="401.0" rx="6.6666665" ry="6.6666665" width="18.0" height="18.0" fill="rgb(103,176,234)" opacity="1.0" /><rect x="101.0" y="401.0" rx="6.6666665" ry="6.6666665" width="18.0" height="18.0" fill="rgb(103,176,234)" opacity="1.0" /><rect x="181.0" y="401.0" rx="6.6666665" ry="6.6666665" width="18.0" height="18.0" fill="rgb(103,176,234)" opacity="1.0" /><rect x="201.0" y="401.0" rx="6.6666665" ry="6.6666665" width="18.0" height="18.0" fill="rgb(103,176,234)" opacity="1.0" /><rect x="261.0" y="401.0" rx="6.6666665" ry="6.6666665" width="18.0" height="18.0" fill="rgb(103,176,234)" opacity="1.0" /><rect x="281.0" y="401.0" rx="6.6666665" ry="6.6666665" width="18.0" height="18.0" fill="rgb(103,176,234)" opacity="1.0" /><rect x="341.0" y="401.0" rx="6.6666665" ry="6.6666665" width="18.0" height="18.0" fill="rgb(103,176,234)" opacity="1.0" /><rect x="361.0" y="401.0" rx="6.6666665" ry="6.6666665" width="18.0" height="18.0" fill="rgb(103,176,234)" opacity="1.0" /><rect x="381.0" y="401.0" rx="6.6666665" ry="6.6666665" width="18.0" height="18.0" fill="rgb(103,176,234)" opacity="1.0" /><rect x="401.0" y="401.0" rx="6.6666665" ry="6.6666665" width="18.0" height="18.0" fill="rgb(103,176,234)" opacity="1.0" /><rect x="421.0" y="401.0" rx="6.6666665" ry="6.6666665" width="18.0" height="18.0" fill="rgb(103,176,234)" opacity="1.0" /><rect x="441.0" y="401.0" rx="6.6666665" ry="6.6666665" width="18.0" height="18.0" fill="rgb(103,176,234)" opacity="1.0" /><rect x="461.0" y="401.0" rx="6.6666665" ry="6.6666665" width="18.0" height="18.0" fill="rgb(103,176,234)" opacity="1.0" /><rect x="481.0" y="401.0" rx="6.6666665" ry="6.6666665" width="18.0" height="18.0" fill="rgb(103,176,234)" opacity="1.0" /><rect x="501.0" y="401.0" rx="6.6666665" ry="6.6666665" width="18.0" height="18.0" fill="rgb(103,176,234)" opacity="1.0" /><rect x="521.0" y="401.0" rx="6.6666665" ry="6.6666665" width="18.0" height="18.0" fill="rgb(103,176,234)" opacity="1.0" /><rect x="541.0" y="401.0" rx="6.6666665" ry="6.6666665" width="18.0" height="18.0" fill="rgb(103,176,234)" opacity="1.0" /><rect x="561.0" y="401.0" rx="6.6666665" ry="6.6666665" width="18.0" height="18.0" fill="rgb(103,176,234)" opacity="1.0" /><rect x="241.0" y="421.0" rx="6.6666665" ry="6.6666665" width="18.0" height="18.0" fill="rgb(103,176,234)" opacity="1.0" /><rect x="341.0" y="421.0" rx="6.6666665" ry="6.6666665" width="18.0" height="18.0" fill="rgb(103,176,234)" opacity="1.0" /><rect x="361.0" y="421.0" rx="6.6666665" ry="6.6666665" width="18.0" height="18.0" fill="rgb(103,176,234)" opacity="1.0" /><rect x="381.0" y="421.0" rx="6.6666665" ry="6.6666665" width="18.0" height="18.0" fill="rgb(103,176,234)" opacity="1.0" /><rect x="401.0" y="421.0" rx="6.6666665" ry="6.6666665" width="18.0" height="18.0" fill="rgb(103,176,234)" opacity="1.0" /><rect x="481.0" y="421.0" rx="6.6666665" ry="6.6666665" width="18.0" height="18.0" fill="rgb(103,176,234)" opacity="1.0" /><rect x="501.0" y="421.0" rx="6.6666665" ry="6.6666665" width="18.0" height="18.0" fill="rgb(103,176,234)" opacity="1.0" /><rect x="241.0" y="441.0" rx="6.6666665" ry="6.6666665" width="18.0" height="18.0" fill="rgb(103,176,234)" opacity="1.0" /><rect x="261.0" y="441.0" rx="6.6666665" ry="6.6666665" width="18.0" height="18.0" fill="rgb(103,176,234)" opacity="1.0" /><rect x="301.0" y="441.0" rx="6.6666665" ry="6.6666665" width="18.0" height="18.0" fill="rgb(103,176,234)" opacity="1.0" /><rect x="381.0" y="441.0" rx="6.6666665" ry="6.6666665" width="18.0" height="18.0" fill="rgb(103,176,234)" opacity="1.0" /><rect x="401.0" y="441.0" rx="6.6666665" ry="6.6666665" width="18.0" height="18.0" fill="rgb(103,176,234)" opacity="1.0" /><rect x="441.0" y="441.0" rx="6.6666665" ry="6.6666665" width="18.0" height="18.0" fill="rgb(103,176,234)" opacity="1.0" /><rect x="481.0" y="441.0" rx="6.6666665" ry="6.6666665" width="18.0" height="18.0" fill="rgb(103,176,234)" opacity="1.0" /><rect x="561.0" y="441.0" rx="6.6666665" ry="6.6666665" width="18.0" height="18.0" fill="rgb(103,176,234)" opacity="1.0" /><rect x="281.0" y="461.0" rx="6.6666665" ry="6.6666665" width="18.0" height="18.0" fill="rgb(103,176,234)" opacity="1.0" /><rect x="341.0" y="461.0" rx="6.6666665" ry="6.6666665" width="18.0" height="18.0" fill="rgb(103,176,234)" opacity="1.0" /><rect x="381.0" y="461.0" rx="6.6666665" ry="6.6666665" width="18.0" height="18.0" fill="rgb(103,176,234)" opacity="1.0" /><rect x="401.0" y="461.0" rx="6.6666665" ry="6.6666665" width="18.0" height="18.0" fill="rgb(103,176,234)" opacity="1.0" /><rect x="481.0" y="461.0" rx="6.6666665" ry="6.6666665" width="18.0" height="18.0" fill="rgb(103,176,234)" opacity="1.0" /><rect x="561.0" y="461.0" rx="6.6666665" ry="6.6666665" width="18.0" height="18.0" fill="rgb(103,176,234)" opacity="1.0" /><rect x="261.0" y="481.0" rx="6.6666665" ry="6.6666665" width="18.0" height="18.0" fill="rgb(103,176,234)" opacity="1.0" /><rect x="281.0" y="481.0" rx="6.6666665" ry="6.6666665" width="18.0" height="18.0" fill="rgb(103,176,234)" opacity="1.0" /><rect x="301.0" y="481.0" rx="6.6666665" ry="6.6666665" width="18.0" height="18.0" fill="rgb(103,176,234)" opacity="1.0" /><rect x="321.0" y="481.0" rx="6.6666665" ry="6.6666665" width="18.0" height="18.0" fill="rgb(103,176,234)" opacity="1.0" /><rect x="341.0" y="481.0" rx="6.6666665" ry="6.6666665" width="18.0" height="18.0" fill="rgb(103,176,234)" opacity="1.0" /><rect x="381.0" y="481.0" rx="6.6666665" ry="6.6666665" width="18.0" height="18.0" fill="rgb(103,176,234)" opacity="1.0" /><rect x="401.0" y="481.0" rx="6.6666665" ry="6.6666665" width="18.0" height="18.0" fill="rgb(103,176,234)" opacity="1.0" /><rect x="421.0" y="481.0" rx="6.6666665" ry="6.6666665" width="18.0" height="18.0" fill="rgb(103,176,234)" opacity="1.0" /><rect x="441.0" y="481.0" rx="6.6666665" ry="6.6666665" width="18.0" height="18.0" fill="rgb(103,176,234)" opacity="1.0" /><rect x="461.0" y="481.0" rx="6.6666665" ry="6.6666665" width="18.0" height="18.0" fill="rgb(103,176,234)" opacity="1.0" /><rect x="481.0" y="481.0" rx="6.6666665" ry="6.6666665" width="18.0" height="18.0" fill="rgb(103,176,234)" opacity="1.0" /><rect x="501.0" y="481.0" rx="6.6666665" ry="6.6666665" width="18.0" height="18.0" fill="rgb(103,176,234)" opacity="1.0" /><rect x="521.0" y="481.0" rx="6.6666665" ry="6.6666665" width="18.0" height="18.0" fill="rgb(103,176,234)" opacity="1.0" /><rect x="541.0" y="481.0" rx="6.6666665" ry="6.6666665" width="18.0" height="18.0" fill="rgb(103,176,234)" opacity="1.0" /><rect x="261.0" y="501.0" rx="6.6666665" ry="6.6666665" width="18.0" height="18.0" fill="rgb(103,176,234)" opacity="1.0" /><rect x="281.0" y="501.0" rx="6.6666665" ry="6.6666665" width="18.0" height="18.0" fill="rgb(103,176,234)" opacity="1.0" /><rect x="321.0" y="501.0" rx="6.6666665" ry="6.6666665" width="18.0" height="18.0" fill="rgb(103,176,234)" opacity="1.0" /><rect x="381.0" y="501.0" rx="6.6666665" ry="6.6666665" width="18.0" height="18.0" fill="rgb(103,176,234)" opacity="1.0" /><rect x="401.0" y="501.0" rx="6.6666665" ry="6.6666665" width="18.0" height="18.0" fill="rgb(103,176,234)" opacity="1.0" /><rect x="481.0" y="501.0" rx="6.6666665" ry="6.6666665" width="18.0" height="18.0" fill="rgb(103,176,234)" opacity="1.0" /><rect x="501.0" y="501.0" rx="6.6666665" ry="6.6666665" width="18.0" height="18.0" fill="rgb(103,176,234)" opacity="1.0" /><rect x="541.0" y="501.0" rx="6.6666665" ry="6.6666665" width="18.0" height="18.0" fill="rgb(103,176,234)" opacity="1.0" /><rect x="241.0" y="521.0" rx="6.6666665" ry="6.6666665" width="18.0" height="18.0" fill="rgb(103,176,234)" opacity="1.0" /><rect x="261.0" y="521.0" rx="6.6666665" ry="6.6666665" width="18.0" height="18.0" fill="rgb(103,176,234)" opacity="1.0" /><rect x="321.0" y="521.0" rx="6.6666665" ry="6.6666665" width="18.0" height="18.0" fill="rgb(103,176,234)" opacity="1.0" /><rect x="341.0" y="521.0" rx="6.6666665" ry="6.6666665" width="18.0" height="18.0" fill="rgb(103,176,234)" opacity="1.0" /><rect x="361.0" y="521.0" rx="6.6666665" ry="6.6666665" width="18.0" height="18.0" fill="rgb(103,176,234)" opacity="1.0" /><rect x="401.0" y="521.0" rx="6.6666665" ry="6.6666665" width="18.0" height="18.0" fill="rgb(103,176,234)" opacity="1.0" /><rect x="441.0" y="521.0" rx="6.6666665" ry="6.6666665" width="18.0" height="18.0" fill="rgb(103,176,234)" opacity="1.0" /><rect x="461.0" y="521.0" rx="6.6666665" ry="6.6666665" width="18.0" height="18.0" fill="rgb(103,176,234)" opacity="1.0" /><rect x="541.0" y="521.0" rx="6.6666665" ry="6.6666665" width="18.0" height="18.0" fill="rgb(103,176,234)" opacity="1.0" /><rect x="561.0" y="521.0" rx="6.6666665" ry="6.6666665" width="18.0" height="18.0" fill="rgb(103,176,234)" opacity="1.0" /><rect x="261.0" y="541.0" rx="6.6666665" ry="6.6666665" width="18.0" height="18.0" fill="rgb(103,176,234)" opacity="1.0" /><rect x="281.0" y="541.0" rx="6.6666665" ry="6.6666665" width="18.0" height="18.0" fill="rgb(103,176,234)" opacity="1.0" /><rect x="301.0" y="541.0" rx="6.6666665" ry="6.6666665" width="18.0" height="18.0" fill="rgb(103,176,234)" opacity="1.0" /><rect x="321.0" y="541.0" rx="6.6666665" ry="6.6666665" width="18.0" height="18.0" fill="rgb(103,176,234)" opacity="1.0" /><rect x="361.0" y="541.0" rx="6.6666665" ry="6.6666665" width="18.0" height="18.0" fill="rgb(103,176,234)" opacity="1.0" /><rect x="401.0" y="541.0" rx="6.6666665" ry="6.6666665" width="18.0" height="18.0" fill="rgb(103,176,234)" opacity="1.0" /><rect x="421.0" y="541.0" rx="6.6666665" ry="6.6666665" width="18.0" height="18.0" fill="rgb(103,176,234)" opacity="1.0" /><rect x="461.0" y="541.0" rx="6.6666665" ry="6.6666665" width="18.0" height="18.0" fill="rgb(103,176,234)" opacity="1.0" /><rect x="481.0" y="541.0" rx="6.6666665" ry="6.6666665" width="18.0" height="18.0" fill="rgb(103,176,234)" opacity="1.0" /><rect x="541.0" y="541.0" rx="6.6666665" ry="6.6666665" width="18.0" height="18.0" fill="rgb(103,176,234)" opacity="1.0" /><rect x="561.0" y="541.0" rx="6.6666665" ry="6.6666665" width="18.0" height="18.0" fill="rgb(103,176,234)" opacity="1.0" /><rect x="241.0" y="561.0" rx="6.6666665" ry="6.6666665" width="18.0" height="18.0" fill="rgb(103,176,234)" opacity="1.0" /><rect x="261.0" y="561.0" rx="6.6666665" ry="6.6666665" width="18.0" height="18.0" fill="rgb(103,176,234)" opacity="1.0" /><rect x="281.0" y="561.0" rx="6.6666665" ry="6.6666665" width="18.0" height="18.0" fill="rgb(103,176,234)" opacity="1.0" /><rect x="341.0" y="561.0" rx="6.6666665" ry="6.6666665" width="18.0" height="18.0" fill="rgb(103,176,234)" opacity="1.0" /><rect x="361.0" y="561.0" rx="6.6666665" ry="6.6666665" width="18.0" height="18.0" fill="rgb(103,176,234)" opacity="1.0" /><rect x="381.0" y="561.0" rx="6.6666665" ry="6.6666665" width="18.0" height="18.0" fill="rgb(103,176,234)" opacity="1.0" /><rect x="401.0" y="561.0" rx="6.6666665" ry="6.6666665" width="18.0" height="18.0" fill="rgb(103,176,234)" opacity="1.0" /><rect x="461.0" y="561.0" rx="6.6666665" ry="6.6666665" width="18.0" height="18.0" fill="rgb(103,176,234)" opacity="1.0" /><rect x="481.0" y="561.0" rx="6.6666665" ry="6.6666665" width="18.0" height="18.0" fill="rgb(103,176,234)" opacity="1.0" /><rect x="561.0" y="561.0" rx="6.6666665" ry="6.6666665" width="18.0" height="18.0" fill="rgb(103,176,234)" opacity="1.0" /><path d="M80 80 H192.0 A28.0 28.0 0 0 1 220 108.0 V192.0 A28.0 28.0 0 0 1 192.0 220 H108.0 A28.0 28.0 0 0 1 80 192.0 V108.0 A28.0 28.0 0 0 1 108 80 Z M100.0 100.0 H180.0 A20.0 20.0 0 0 1 200.0 120.0 V180.0 A20.0 20.0 0 0 1 180.0 200.0 H120.0 A20.0 20.0 0 0 1 100.0 180.0 V120.0 A20.0 20.0 0 0 1 120.0 100.0 Z" fill-rule="evenodd" fill="rgb(103,176,234)" opacity="1.0" /><path d="M440 80 H552.0 A28.0 28.0 0 0 1 580 108.0 V192.0 A28.0 28.0 0 0 1 552.0 220 H468.0 A28.0 28.0 0 0 1 440 192.0 V108.0 A28.0 28.0 0 0 1 468 80 Z M460.0 100.0 H540.0 A20.0 20.0 0 0 1 560.0 120.0 V180.0 A20.0 20.0 0 0 1 540.0 200.0 H480.0 A20.0 20.0 0 0 1 460.0 180.0 V120.0 A20.0 20.0 0 0 1 480.0 100.0 Z" fill-rule="evenodd" fill="rgb(103,176,234)" opacity="1.0" /><rect x="120" y="120" rx="20.0" ry="20.0" width="60" height="60" fill="rgb(103,176,234)" opacity="1.0" /><rect x="480" y="120" rx="20.0" ry="20.0" width="60" height="60" fill="rgb(103,176,234)" opacity="1.0" /><path d="M80 440 H192.0 A28.0 28.0 0 0 1 220 468.0 V552.0 A28.0 28.0 0 0 1 192.0 580 H108.0 A28.0 28.0 0 0 1 80 552.0 V468.0 A28.0 28.0 0 0 1 108 440 Z M100.0 460.0 H180.0 A20.0 20.0 0 0 1 200.0 480.0 V540.0 A20.0 20.0 0 0 1 180.0 560.0 H120.0 A20.0 20.0 0 0 1 100.0 540.0 V480.0 A20.0 20.0 0 0 1 120.0 460.0 Z" fill-rule="evenodd" fill="rgb(103,176,234)" opacity="1.0" /><rect x="120" y="480" rx="20.0" ry="20.0" width="60" height="60" fill="rgb(103,176,234)" opacity="1.0" /></svg></g></svg>