<svg width="43.9" height="70" viewBox="0 0 43.9 70" xmlns="http://www.w3.org/2000/svg"><g id="svgGroup" stroke-linecap="round" fill-rule="evenodd" font-size="9pt" stroke="#000000" stroke-width="0.25mm" fill="#000000" style="stroke:#000000;stroke-width:0.25mm;fill:#000000"><path d="M 23.6 0 L 0 0 L 0 70 L 5.7 70 L 5.7 45.5 L 23.6 45.5 Q 24.6 45.5 25.55 45.45 Q 26.5 45.4 27.4 45.3 A 13.343 13.343 0 0 0 28.681 45.096 A 11.608 11.608 0 0 0 29.1 45 L 38.2 70 L 43.9 70 L 34.2 43.5 A 14.898 14.898 0 0 0 38.92 39.858 A 14.414 14.414 0 0 0 39.45 39.2 Q 41.44 36.579 42.441 32.639 A 26.047 26.047 0 0 0 42.5 32.4 A 32.236 32.236 0 0 0 43.175 28.581 Q 43.409 26.619 43.474 24.387 A 60.703 60.703 0 0 0 43.5 22.6 A 52.432 52.432 0 0 0 43.317 18.088 Q 43.127 15.889 42.738 14.002 A 25.464 25.464 0 0 0 42.2 11.85 Q 40.948 7.662 38.538 5.096 A 12.6 12.6 0 0 0 38.35 4.9 A 14.591 14.591 0 0 0 32.558 1.299 A 17.122 17.122 0 0 0 32.1 1.15 Q 28.4 0 23.6 0 Z M 24.1 40 L 5.7 40 L 5.7 5.3 L 24.1 5.3 A 19.784 19.784 0 0 1 27.734 5.623 A 16.984 16.984 0 0 1 29.5 6.05 Q 32 6.8 33.85 8.65 Q 35.42 10.22 36.413 12.905 A 19.143 19.143 0 0 1 36.75 13.9 Q 37.8 17.3 37.8 22.6 A 51.386 51.386 0 0 1 37.697 25.948 Q 37.472 29.394 36.75 31.8 Q 35.981 34.362 34.757 35.987 A 7.923 7.923 0 0 1 33.8 37.05 Q 31.9 38.8 29.45 39.4 Q 27 40 24.1 40 Z"/></g></svg>